<svg width="327" height="56" viewBox="0 0 327 56" fill="none" xmlns="http://www.w3.org/2000/svg">
<rect width="327" height="56" rx="8" fill="#34D186"/>
<path fill-rule="evenodd" clip-rule="evenodd" d="M149.393 20V35.0368H145.856V20.7517L149.393 20ZM139.322 31.4987C140.3 31.4987 141.091 30.7075 141.091 29.7297C141.091 28.7517 140.3 27.9607 139.322 27.9607C138.344 27.9607 137.553 28.7517 137.553 29.7297C137.553 30.7075 138.344 31.4987 139.322 31.4987ZM139.322 24.2702C142.334 24.2702 144.78 26.7124 144.78 29.7297C144.78 32.7468 142.333 35.1892 139.322 35.1892C136.306 35.1892 133.864 32.7468 133.864 29.7297C133.864 26.7124 136.311 24.2702 139.322 24.2702ZM139.322 36.4619C140.299 36.4619 141.091 37.2539 141.091 38.231C141.091 39.208 140.299 40 139.322 40C138.345 40 137.553 39.208 137.553 38.231C137.553 37.2539 138.345 36.4619 139.322 36.4619ZM131.452 27.086C132.307 27.9312 132.837 29.1007 132.832 30.393C132.832 32.9581 130.754 35.0368 128.19 35.0368H122V20H127.502C130.067 20 132.144 22.0787 132.144 24.6436C132.144 25.538 131.894 26.3783 131.452 27.086ZM128.195 31.4987C128.804 31.4987 129.3 31.0024 129.3 30.393C129.3 29.7838 128.804 29.2874 128.195 29.2874H125.542V31.4987H128.195ZM125.542 23.5381V25.7494H127.507C128.116 25.7494 128.612 25.253 128.612 24.6436C128.612 24.0344 128.116 23.5381 127.507 23.5381H125.542ZM156.074 28.0098H154.31V30.7862C154.31 31.6266 154.581 32.2456 155.288 32.2456C155.745 32.2456 156.079 32.1425 156.079 32.1425V34.747C156.079 34.747 155.347 35.1893 154.355 35.1893H154.31C154.266 35.1893 154.227 35.1842 154.183 35.1842H154.148C154.129 35.1842 154.104 35.1794 154.084 35.1794C152.109 35.076 150.768 33.8328 150.768 31.6756V22.5208L154.306 21.7691V24.4717H156.074V28.0098Z" fill="white"/>
<path fill-rule="evenodd" clip-rule="evenodd" d="M176.422 31.499C177.402 31.499 178.194 30.7078 178.194 29.73C178.194 28.752 177.402 27.9609 176.422 27.9609C175.443 27.9609 174.65 28.752 174.65 29.73C174.65 30.7078 175.443 31.499 176.422 31.499ZM176.422 24.2703C179.44 24.2703 181.891 26.7126 181.891 29.73C181.891 32.7471 179.44 35.1896 176.422 35.1896C173.4 35.1896 170.954 32.7471 170.954 29.73C170.954 26.7126 173.405 24.2703 176.422 24.2703ZM187.995 31.499C188.975 31.499 189.767 30.7078 189.767 29.73C189.767 28.752 188.975 27.9609 187.995 27.9609C187.016 27.9609 186.223 28.752 186.223 29.73C186.223 30.7078 187.016 31.499 187.995 31.499ZM187.995 24.2703C191.013 24.2703 193.464 26.7126 193.464 29.73C193.464 32.7471 191.013 35.1896 187.995 35.1896C184.973 35.1896 182.527 32.7471 182.527 29.73C182.527 26.7126 184.978 24.2703 187.995 24.2703ZM165.149 29.2902V35.0371H161.605V20H171.065V23.543H165.149V25.747H169.993V29.2902H165.149ZM201.443 34.129C200.842 34.6871 200.071 35.0371 199.117 35.0371C196.346 35.0371 194.101 32.6271 194.101 29.6537C194.101 26.6805 196.346 24.2703 199.117 24.2703C200.071 24.2703 200.842 24.6139 201.443 25.1659V20H204.987V35.0371H201.443V34.129ZM199.521 31.4391C200.508 31.4391 201.309 30.6398 201.309 29.6537C201.309 28.6676 200.508 27.8685 199.521 27.8685C198.533 27.8685 197.732 28.6676 197.732 29.6537C197.732 30.6398 198.533 31.4391 199.521 31.4391Z" fill="white"/>
</svg>
