<svg width="34" height="34" viewBox="0 0 34 34" fill="none" xmlns="http://www.w3.org/2000/svg">
<path fill-rule="evenodd" clip-rule="evenodd" d="M24.0079 0.100592C22.1972 0.0335306 19.8613 0 17 0C14.1387 0 11.8028 0.0335306 9.99211 0.100592C8.4497 0.167653 7.07495 0.435897 5.86785 0.905325C4.70546 1.3524 3.69954 2.00066 2.8501 2.8501C2.00066 3.69954 1.3524 4.70546 0.905325 5.86785C0.435897 7.07495 0.167653 8.4497 0.100592 9.99211C0.0335306 11.8028 0 14.1387 0 17C0 19.8613 0.0335306 22.1972 0.100592 24.0079C0.167653 25.5503 0.435897 26.925 0.905325 28.1321C1.3524 29.2945 2.00066 30.3005 2.8501 31.1499C3.69954 31.9993 4.70546 32.6476 5.86785 33.0947C7.07495 33.5641 8.4497 33.8323 9.99211 33.8994C11.8028 33.9665 14.1387 34 17 34C19.8613 34 22.1972 33.9665 24.0079 33.8994C25.5503 33.8323 26.925 33.5641 28.1321 33.0947C29.2945 32.6476 30.3005 31.9993 31.1499 31.1499C31.9993 30.3005 32.6476 29.2945 33.0947 28.1321C33.5641 26.925 33.8323 25.5503 33.8994 24.0079C33.9665 22.1972 34 19.8613 34 17C34 14.1387 33.9665 11.8028 33.8994 9.99211C33.8323 8.4497 33.5641 7.07495 33.0947 5.86785C32.6476 4.70546 31.9993 3.69954 31.1499 2.8501C30.3005 2.00066 29.2945 1.3524 28.1321 0.905325C26.925 0.435897 25.5503 0.167653 24.0079 0.100592ZM9.72387 2.31361C11.6016 2.24655 14.027 2.21302 17 2.21302C19.973 2.21302 22.3984 2.24655 24.2761 2.31361C25.4832 2.35832 26.6009 2.57068 27.6292 2.95069C29.2387 3.6213 30.3787 4.76134 31.0493 6.37081C31.4293 7.39908 31.6417 8.51677 31.6864 9.72387C31.7535 11.6016 31.787 14.027 31.787 17C31.787 19.973 31.7535 22.3984 31.6864 24.2761C31.6417 25.4832 31.4293 26.6009 31.0493 27.6292C30.3787 29.2387 29.2387 30.3787 27.6292 31.0493C26.6009 31.4293 25.4832 31.6417 24.2761 31.6864C23.3347 31.72 22.2557 31.7452 21.039 31.762V22.4035H24.7791L25.3198 17.8791H21.0405V14.9563C21.0405 13.6382 21.349 12.7424 23.157 12.7424H25.5V8.64176C25.1006 8.58898 23.715 8.5 22.1218 8.5C18.7984 8.5 16.5348 10.5918 16.5348 14.4858V17.8791H12.75V22.4035H16.5333V31.7867C13.7722 31.7833 11.5024 31.7499 9.72387 31.6864C8.51677 31.6417 7.39908 31.4293 6.37081 31.0493C4.76134 30.3787 3.6213 29.2387 2.95069 27.6292C2.57068 26.6009 2.35832 25.4832 2.31361 24.2761C2.24655 22.3984 2.21302 19.973 2.21302 17C2.21302 14.027 2.24655 11.6016 2.31361 9.72387C2.35832 8.51677 2.57068 7.39908 2.95069 6.37081C3.6213 4.76134 4.76134 3.6213 6.37081 2.95069C7.39908 2.57068 8.51677 2.35832 9.72387 2.31361Z" fill="#473232"/>
<path fill-rule="evenodd" clip-rule="evenodd" d="M24.0079 0.100592C22.1972 0.0335306 19.8613 0 17 0C14.1387 0 11.8028 0.0335306 9.99211 0.100592C8.4497 0.167653 7.07495 0.435897 5.86785 0.905325C4.70546 1.3524 3.69954 2.00066 2.8501 2.8501C2.00066 3.69954 1.3524 4.70546 0.905325 5.86785C0.435897 7.07495 0.167653 8.4497 0.100592 9.99211C0.0335306 11.8028 0 14.1387 0 17C0 19.8613 0.0335306 22.1972 0.100592 24.0079C0.167653 25.5503 0.435897 26.925 0.905325 28.1321C1.3524 29.2945 2.00066 30.3005 2.8501 31.1499C3.69954 31.9993 4.70546 32.6476 5.86785 33.0947C7.07495 33.5641 8.4497 33.8323 9.99211 33.8994C11.8028 33.9665 14.1387 34 17 34C19.8613 34 22.1972 33.9665 24.0079 33.8994C25.5503 33.8323 26.925 33.5641 28.1321 33.0947C29.2945 32.6476 30.3005 31.9993 31.1499 31.1499C31.9993 30.3005 32.6476 29.2945 33.0947 28.1321C33.5641 26.925 33.8323 25.5503 33.8994 24.0079C33.9665 22.1972 34 19.8613 34 17C34 14.1387 33.9665 11.8028 33.8994 9.99211C33.8323 8.4497 33.5641 7.07495 33.0947 5.86785C32.6476 4.70546 31.9993 3.69954 31.1499 2.8501C30.3005 2.00066 29.2945 1.3524 28.1321 0.905325C26.925 0.435897 25.5503 0.167653 24.0079 0.100592ZM9.72387 2.31361C11.6016 2.24655 14.027 2.21302 17 2.21302C19.973 2.21302 22.3984 2.24655 24.2761 2.31361C25.4832 2.35832 26.6009 2.57068 27.6292 2.95069C29.2387 3.6213 30.3787 4.76134 31.0493 6.37081C31.4293 7.39908 31.6417 8.51677 31.6864 9.72387C31.7535 11.6016 31.787 14.027 31.787 17C31.787 19.973 31.7535 22.3984 31.6864 24.2761C31.6417 25.4832 31.4293 26.6009 31.0493 27.6292C30.3787 29.2387 29.2387 30.3787 27.6292 31.0493C26.6009 31.4293 25.4832 31.6417 24.2761 31.6864C23.3347 31.72 22.2557 31.7452 21.039 31.762V22.4035H24.7791L25.3198 17.8791H21.0405V14.9563C21.0405 13.6382 21.349 12.7424 23.157 12.7424H25.5V8.64176C25.1006 8.58898 23.715 8.5 22.1218 8.5C18.7984 8.5 16.5348 10.5918 16.5348 14.4858V17.8791H12.75V22.4035H16.5333V31.7867C13.7722 31.7833 11.5024 31.7499 9.72387 31.6864C8.51677 31.6417 7.39908 31.4293 6.37081 31.0493C4.76134 30.3787 3.6213 29.2387 2.95069 27.6292C2.57068 26.6009 2.35832 25.4832 2.31361 24.2761C2.24655 22.3984 2.21302 19.973 2.21302 17C2.21302 14.027 2.24655 11.6016 2.31361 9.72387C2.35832 8.51677 2.57068 7.39908 2.95069 6.37081C3.6213 4.76134 4.76134 3.6213 6.37081 2.95069C7.39908 2.57068 8.51677 2.35832 9.72387 2.31361Z" fill="#6A9070"/>
</svg>
