<svg width="34" height="34" viewBox="0 0 34 34" fill="none" xmlns="http://www.w3.org/2000/svg">
<path d="M17 0C19.8613 0 22.1972 0.0335306 24.0079 0.100592C25.5503 0.167653 26.925 0.435897 28.1321 0.905325C29.2945 1.3524 30.3005 2.00066 31.1499 2.8501C31.9993 3.69954 32.6476 4.70546 33.0947 5.86785C33.5641 7.07495 33.8323 8.4497 33.8994 9.99211C33.9665 11.8028 34 14.1387 34 17C34 19.8613 33.9665 22.1972 33.8994 24.0079C33.8323 25.5503 33.5641 26.925 33.0947 28.1321C32.6476 29.2945 31.9993 30.3005 31.1499 31.1499C30.3005 31.9993 29.2945 32.6476 28.1321 33.0947C26.925 33.5641 25.5503 33.8323 24.0079 33.8994C22.1972 33.9665 19.8613 34 17 34C14.1387 34 11.8028 33.9665 9.99211 33.8994C8.4497 33.8323 7.07495 33.5641 5.86785 33.0947C4.70546 32.6476 3.69954 31.9993 2.8501 31.1499C2.00066 30.3005 1.3524 29.2945 0.905325 28.1321C0.435897 26.925 0.167653 25.5503 0.100592 24.0079C0.0335306 22.1972 0 19.8613 0 17C0 14.1387 0.0335306 11.8028 0.100592 9.99211C0.167653 8.4497 0.435897 7.07495 0.905325 5.86785C1.3524 4.70546 2.00066 3.69954 2.8501 2.8501C3.69954 2.00066 4.70546 1.3524 5.86785 0.905325C7.07495 0.435897 8.4497 0.167653 9.99211 0.100592C11.8028 0.0335306 14.1387 0 17 0ZM17 2.21302C14.027 2.21302 11.6016 2.24655 9.72387 2.31361C8.51676 2.35832 7.39908 2.57068 6.37081 2.95069C4.76134 3.6213 3.6213 4.76134 2.95069 6.37081C2.57068 7.39908 2.35832 8.51676 2.31361 9.72387C2.24655 11.6016 2.21302 14.027 2.21302 17C2.21302 19.973 2.24655 22.3984 2.31361 24.2761C2.35832 25.4832 2.57068 26.6009 2.95069 27.6292C3.6213 29.2387 4.76134 30.3787 6.37081 31.0493C7.39908 31.4293 8.51676 31.6417 9.72387 31.6864C11.6016 31.7535 14.027 31.787 17 31.787C19.973 31.787 22.3984 31.7535 24.2761 31.6864C25.4832 31.6417 26.6009 31.4293 27.6292 31.0493C29.2387 30.3787 30.3787 29.2387 31.0493 27.6292C31.4293 26.6009 31.6417 25.4832 31.6864 24.2761C31.7535 22.3984 31.787 19.973 31.787 17C31.787 14.027 31.7535 11.6016 31.6864 9.72387C31.6417 8.51676 31.4293 7.39908 31.0493 6.37081C30.3787 4.76134 29.2387 3.6213 27.6292 2.95069C26.6009 2.57068 25.4832 2.35832 24.2761 2.31361C22.3984 2.24655 19.973 2.21302 17 2.21302ZM17 23.8067C18.8777 23.8067 20.4816 23.1417 21.8116 21.8116C23.1417 20.4816 23.8067 18.8777 23.8067 17C23.8067 15.1223 23.1417 13.5184 21.8116 12.1884C20.4816 10.8583 18.8777 10.1933 17 10.1933C15.1223 10.1933 13.5184 10.8583 12.1884 12.1884C10.8583 13.5184 10.1933 15.1223 10.1933 17C10.1933 18.8777 10.8583 20.4816 12.1884 21.8116C13.5184 23.1417 15.1223 23.8067 17 23.8067ZM17 8.28205C19.4142 8.28205 21.4707 9.13149 23.1696 10.8304C24.8685 12.5293 25.7179 14.5858 25.7179 17C25.7179 19.4142 24.8685 21.4707 23.1696 23.1696C21.4707 24.8685 19.4142 25.7179 17 25.7179C14.5858 25.7179 12.5293 24.8685 10.8304 23.1696C9.13149 21.4707 8.28205 19.4142 8.28205 17C8.28205 14.5858 9.13149 12.5293 10.8304 10.8304C12.5293 9.13149 14.5858 8.28205 17 8.28205ZM28.1321 7.94675C28.1321 8.50559 27.931 8.9806 27.5286 9.37179C27.1262 9.76298 26.6344 9.95858 26.0533 9.95858C25.4944 9.95858 25.0194 9.76298 24.6282 9.37179C24.237 8.9806 24.0414 8.50559 24.0414 7.94675C24.0414 7.36555 24.237 6.87377 24.6282 6.4714C25.0194 6.06903 25.4944 5.86785 26.0533 5.86785C26.6121 5.86785 27.0983 6.07462 27.5118 6.48817C27.9254 6.90171 28.1321 7.3879 28.1321 7.94675Z" fill="#473232"/>
<path d="M17 0C19.8613 0 22.1972 0.0335306 24.0079 0.100592C25.5503 0.167653 26.925 0.435897 28.1321 0.905325C29.2945 1.3524 30.3005 2.00066 31.1499 2.8501C31.9993 3.69954 32.6476 4.70546 33.0947 5.86785C33.5641 7.07495 33.8323 8.4497 33.8994 9.99211C33.9665 11.8028 34 14.1387 34 17C34 19.8613 33.9665 22.1972 33.8994 24.0079C33.8323 25.5503 33.5641 26.925 33.0947 28.1321C32.6476 29.2945 31.9993 30.3005 31.1499 31.1499C30.3005 31.9993 29.2945 32.6476 28.1321 33.0947C26.925 33.5641 25.5503 33.8323 24.0079 33.8994C22.1972 33.9665 19.8613 34 17 34C14.1387 34 11.8028 33.9665 9.99211 33.8994C8.4497 33.8323 7.07495 33.5641 5.86785 33.0947C4.70546 32.6476 3.69954 31.9993 2.8501 31.1499C2.00066 30.3005 1.3524 29.2945 0.905325 28.1321C0.435897 26.925 0.167653 25.5503 0.100592 24.0079C0.0335306 22.1972 0 19.8613 0 17C0 14.1387 0.0335306 11.8028 0.100592 9.99211C0.167653 8.4497 0.435897 7.07495 0.905325 5.86785C1.3524 4.70546 2.00066 3.69954 2.8501 2.8501C3.69954 2.00066 4.70546 1.3524 5.86785 0.905325C7.07495 0.435897 8.4497 0.167653 9.99211 0.100592C11.8028 0.0335306 14.1387 0 17 0ZM17 2.21302C14.027 2.21302 11.6016 2.24655 9.72387 2.31361C8.51676 2.35832 7.39908 2.57068 6.37081 2.95069C4.76134 3.6213 3.6213 4.76134 2.95069 6.37081C2.57068 7.39908 2.35832 8.51676 2.31361 9.72387C2.24655 11.6016 2.21302 14.027 2.21302 17C2.21302 19.973 2.24655 22.3984 2.31361 24.2761C2.35832 25.4832 2.57068 26.6009 2.95069 27.6292C3.6213 29.2387 4.76134 30.3787 6.37081 31.0493C7.39908 31.4293 8.51676 31.6417 9.72387 31.6864C11.6016 31.7535 14.027 31.787 17 31.787C19.973 31.787 22.3984 31.7535 24.2761 31.6864C25.4832 31.6417 26.6009 31.4293 27.6292 31.0493C29.2387 30.3787 30.3787 29.2387 31.0493 27.6292C31.4293 26.6009 31.6417 25.4832 31.6864 24.2761C31.7535 22.3984 31.787 19.973 31.787 17C31.787 14.027 31.7535 11.6016 31.6864 9.72387C31.6417 8.51676 31.4293 7.39908 31.0493 6.37081C30.3787 4.76134 29.2387 3.6213 27.6292 2.95069C26.6009 2.57068 25.4832 2.35832 24.2761 2.31361C22.3984 2.24655 19.973 2.21302 17 2.21302ZM17 23.8067C18.8777 23.8067 20.4816 23.1417 21.8116 21.8116C23.1417 20.4816 23.8067 18.8777 23.8067 17C23.8067 15.1223 23.1417 13.5184 21.8116 12.1884C20.4816 10.8583 18.8777 10.1933 17 10.1933C15.1223 10.1933 13.5184 10.8583 12.1884 12.1884C10.8583 13.5184 10.1933 15.1223 10.1933 17C10.1933 18.8777 10.8583 20.4816 12.1884 21.8116C13.5184 23.1417 15.1223 23.8067 17 23.8067ZM17 8.28205C19.4142 8.28205 21.4707 9.13149 23.1696 10.8304C24.8685 12.5293 25.7179 14.5858 25.7179 17C25.7179 19.4142 24.8685 21.4707 23.1696 23.1696C21.4707 24.8685 19.4142 25.7179 17 25.7179C14.5858 25.7179 12.5293 24.8685 10.8304 23.1696C9.13149 21.4707 8.28205 19.4142 8.28205 17C8.28205 14.5858 9.13149 12.5293 10.8304 10.8304C12.5293 9.13149 14.5858 8.28205 17 8.28205ZM28.1321 7.94675C28.1321 8.50559 27.931 8.9806 27.5286 9.37179C27.1262 9.76298 26.6344 9.95858 26.0533 9.95858C25.4944 9.95858 25.0194 9.76298 24.6282 9.37179C24.237 8.9806 24.0414 8.50559 24.0414 7.94675C24.0414 7.36555 24.237 6.87377 24.6282 6.4714C25.0194 6.06903 25.4944 5.86785 26.0533 5.86785C26.6121 5.86785 27.0983 6.07462 27.5118 6.48817C27.9254 6.90171 28.1321 7.3879 28.1321 7.94675Z" fill="#6A9170"/>
</svg>
