<svg width="34" height="34" viewBox="0 0 34 34" fill="none" xmlns="http://www.w3.org/2000/svg">
<path fill-rule="evenodd" clip-rule="evenodd" d="M24.0079 0.100592C22.1972 0.0335306 19.8613 0 17 0C14.1387 0 11.8028 0.0335306 9.99211 0.100592C8.4497 0.167653 7.07495 0.435897 5.86785 0.905325C4.70546 1.3524 3.69954 2.00066 2.8501 2.8501C2.00066 3.69954 1.3524 4.70546 0.905325 5.86785C0.435897 7.07495 0.167653 8.4497 0.100592 9.99211C0.0335306 11.8028 0 14.1387 0 17C0 19.8613 0.0335306 22.1972 0.100592 24.0079C0.167653 25.5503 0.435897 26.925 0.905325 28.1321C1.3524 29.2945 2.00066 30.3005 2.8501 31.1499C3.69954 31.9993 4.70546 32.6476 5.86785 33.0947C7.07495 33.5641 8.4497 33.8323 9.99211 33.8994C11.8028 33.9665 14.1387 34 17 34C19.8613 34 22.1972 33.9665 24.0079 33.8994C25.5503 33.8323 26.925 33.5641 28.1321 33.0947C29.2945 32.6476 30.3005 31.9993 31.1499 31.1499C31.9993 30.3005 32.6476 29.2945 33.0947 28.1321C33.5641 26.925 33.8323 25.5503 33.8994 24.0079C33.9665 22.1972 34 19.8613 34 17C34 14.1387 33.9665 11.8028 33.8994 9.99211C33.8323 8.4497 33.5641 7.07495 33.0947 5.86785C32.6476 4.70546 31.9993 3.69954 31.1499 2.8501C30.3005 2.00066 29.2945 1.3524 28.1321 0.905325C26.925 0.435897 25.5503 0.167653 24.0079 0.100592ZM9.72387 2.31361C11.6016 2.24655 14.027 2.21302 17 2.21302C19.973 2.21302 22.3984 2.24655 24.2761 2.31361C25.4832 2.35832 26.6009 2.57068 27.6292 2.95069C29.2387 3.6213 30.3787 4.76134 31.0493 6.37081C31.4293 7.39908 31.6417 8.51677 31.6864 9.72387C31.7535 11.6016 31.787 14.027 31.787 17C31.787 19.973 31.7535 22.3984 31.6864 24.2761C31.6417 25.4832 31.4293 26.6009 31.0493 27.6292C30.3787 29.2387 29.2387 30.3787 27.6292 31.0493C26.6009 31.4293 25.4832 31.6417 24.2761 31.6864C22.3984 31.7535 19.973 31.787 17 31.787C14.027 31.787 11.6016 31.7535 9.72387 31.6864C8.51677 31.6417 7.39908 31.4293 6.37081 31.0493C4.76134 30.3787 3.6213 29.2387 2.95069 27.6292C2.57068 26.6009 2.35832 25.4832 2.31361 24.2761C2.24655 22.3984 2.21302 19.973 2.21302 17C2.21302 14.027 2.24655 11.6016 2.31361 9.72387C2.35832 8.51677 2.57068 7.39908 2.95069 6.37081C3.6213 4.76134 4.76134 3.6213 6.37081 2.95069C7.39908 2.57068 8.51677 2.35832 9.72387 2.31361ZM22.9968 11.0977C23.1217 11.1799 23.2506 11.2558 23.383 11.325C24.2443 11.7592 25.0857 11.8914 25.5 11.846V15.2274C25.5 15.2274 24.3175 15.1778 23.4398 14.9423C22.2164 14.6114 21.4323 14.1032 21.4323 14.1032C21.4323 14.1032 20.888 13.7392 20.8471 13.7144V20.702C20.8471 21.0903 20.7454 22.0621 20.4405 22.8724C20.1734 23.5652 19.7915 24.2069 19.3111 24.7701C19.3111 24.7701 18.5593 25.7125 17.2387 26.3451C16.1379 26.8726 15.1587 26.9015 14.7697 26.913C14.7379 26.9139 14.7101 26.9147 14.6865 26.9157C14.6865 26.9157 12.8783 26.9892 11.2476 25.8687L11.2394 25.8604V25.8687C10.688 25.4797 10.1964 25.0106 9.78023 24.4767C9.26415 23.8111 8.94748 23.0215 8.86576 22.7901V22.7819C8.73582 22.3889 8.46327 21.4382 8.50413 20.5206C8.5691 18.9038 9.10561 17.9077 9.24781 17.6598C9.62148 16.98 10.1096 16.3713 10.6902 15.8612C11.3528 15.2995 12.1234 14.8828 12.9533 14.6373C13.7831 14.3918 14.6543 14.3229 15.5119 14.4349L15.5078 17.9031C15.2253 17.81 14.93 17.7628 14.6329 17.7631C13.0634 17.7631 11.7914 19.0571 11.7914 20.6553C11.7914 22.2534 13.0634 23.5475 14.6329 23.5475C15.1216 23.5481 15.602 23.42 16.0267 23.1756C16.4342 22.9415 16.7786 22.6097 17.0296 22.2094C17.2805 21.8091 17.4303 21.3526 17.4658 20.88V20.8726C17.4679 20.8627 17.4679 20.8528 17.4679 20.8433C17.4683 20.8357 17.4688 20.8285 17.4692 20.8215C17.4702 20.807 17.4712 20.7933 17.4712 20.7788C17.4785 20.6061 17.4785 20.4313 17.4785 20.2545V7.08333H20.8471C20.8418 7.08333 20.8067 7.40974 20.8917 7.91423H20.8876C20.9893 8.522 21.2655 9.39008 22.0051 10.2458C22.3007 10.5689 22.6337 10.855 22.9968 11.0977Z" fill="#473232"/>
<path fill-rule="evenodd" clip-rule="evenodd" d="M24.0079 0.100592C22.1972 0.0335306 19.8613 0 17 0C14.1387 0 11.8028 0.0335306 9.99211 0.100592C8.4497 0.167653 7.07495 0.435897 5.86785 0.905325C4.70546 1.3524 3.69954 2.00066 2.8501 2.8501C2.00066 3.69954 1.3524 4.70546 0.905325 5.86785C0.435897 7.07495 0.167653 8.4497 0.100592 9.99211C0.0335306 11.8028 0 14.1387 0 17C0 19.8613 0.0335306 22.1972 0.100592 24.0079C0.167653 25.5503 0.435897 26.925 0.905325 28.1321C1.3524 29.2945 2.00066 30.3005 2.8501 31.1499C3.69954 31.9993 4.70546 32.6476 5.86785 33.0947C7.07495 33.5641 8.4497 33.8323 9.99211 33.8994C11.8028 33.9665 14.1387 34 17 34C19.8613 34 22.1972 33.9665 24.0079 33.8994C25.5503 33.8323 26.925 33.5641 28.1321 33.0947C29.2945 32.6476 30.3005 31.9993 31.1499 31.1499C31.9993 30.3005 32.6476 29.2945 33.0947 28.1321C33.5641 26.925 33.8323 25.5503 33.8994 24.0079C33.9665 22.1972 34 19.8613 34 17C34 14.1387 33.9665 11.8028 33.8994 9.99211C33.8323 8.4497 33.5641 7.07495 33.0947 5.86785C32.6476 4.70546 31.9993 3.69954 31.1499 2.8501C30.3005 2.00066 29.2945 1.3524 28.1321 0.905325C26.925 0.435897 25.5503 0.167653 24.0079 0.100592ZM9.72387 2.31361C11.6016 2.24655 14.027 2.21302 17 2.21302C19.973 2.21302 22.3984 2.24655 24.2761 2.31361C25.4832 2.35832 26.6009 2.57068 27.6292 2.95069C29.2387 3.6213 30.3787 4.76134 31.0493 6.37081C31.4293 7.39908 31.6417 8.51677 31.6864 9.72387C31.7535 11.6016 31.787 14.027 31.787 17C31.787 19.973 31.7535 22.3984 31.6864 24.2761C31.6417 25.4832 31.4293 26.6009 31.0493 27.6292C30.3787 29.2387 29.2387 30.3787 27.6292 31.0493C26.6009 31.4293 25.4832 31.6417 24.2761 31.6864C22.3984 31.7535 19.973 31.787 17 31.787C14.027 31.787 11.6016 31.7535 9.72387 31.6864C8.51677 31.6417 7.39908 31.4293 6.37081 31.0493C4.76134 30.3787 3.6213 29.2387 2.95069 27.6292C2.57068 26.6009 2.35832 25.4832 2.31361 24.2761C2.24655 22.3984 2.21302 19.973 2.21302 17C2.21302 14.027 2.24655 11.6016 2.31361 9.72387C2.35832 8.51677 2.57068 7.39908 2.95069 6.37081C3.6213 4.76134 4.76134 3.6213 6.37081 2.95069C7.39908 2.57068 8.51677 2.35832 9.72387 2.31361ZM22.9968 11.0977C23.1217 11.1799 23.2506 11.2558 23.383 11.325C24.2443 11.7592 25.0857 11.8914 25.5 11.846V15.2274C25.5 15.2274 24.3175 15.1778 23.4398 14.9423C22.2164 14.6114 21.4323 14.1032 21.4323 14.1032C21.4323 14.1032 20.888 13.7392 20.8471 13.7144V20.702C20.8471 21.0903 20.7454 22.0621 20.4405 22.8724C20.1734 23.5652 19.7915 24.2069 19.3111 24.7701C19.3111 24.7701 18.5593 25.7125 17.2387 26.3451C16.1379 26.8726 15.1587 26.9015 14.7697 26.913C14.7379 26.9139 14.7101 26.9147 14.6865 26.9157C14.6865 26.9157 12.8783 26.9892 11.2476 25.8687L11.2394 25.8604V25.8687C10.688 25.4797 10.1964 25.0106 9.78023 24.4767C9.26415 23.8111 8.94748 23.0215 8.86576 22.7901V22.7819C8.73582 22.3889 8.46327 21.4382 8.50413 20.5206C8.5691 18.9038 9.10561 17.9077 9.24781 17.6598C9.62148 16.98 10.1096 16.3713 10.6902 15.8612C11.3528 15.2995 12.1234 14.8828 12.9533 14.6373C13.7831 14.3918 14.6543 14.3229 15.5119 14.4349L15.5078 17.9031C15.2253 17.81 14.93 17.7628 14.6329 17.7631C13.0634 17.7631 11.7914 19.0571 11.7914 20.6553C11.7914 22.2534 13.0634 23.5475 14.6329 23.5475C15.1216 23.5481 15.602 23.42 16.0267 23.1756C16.4342 22.9415 16.7786 22.6097 17.0296 22.2094C17.2805 21.8091 17.4303 21.3526 17.4658 20.88V20.8726C17.4679 20.8627 17.4679 20.8528 17.4679 20.8433C17.4683 20.8357 17.4688 20.8285 17.4692 20.8215C17.4702 20.807 17.4712 20.7933 17.4712 20.7788C17.4785 20.6061 17.4785 20.4313 17.4785 20.2545V7.08333H20.8471C20.8418 7.08333 20.8067 7.40974 20.8917 7.91423H20.8876C20.9893 8.522 21.2655 9.39008 22.0051 10.2458C22.3007 10.5689 22.6337 10.855 22.9968 11.0977Z" fill="#6A9070"/>
</svg>
