<svg width="24" height="29" viewBox="0 0 24 29" fill="none" xmlns="http://www.w3.org/2000/svg">
<path d="M11.8393 0C18.3782 0 23.6786 5.30036 23.6786 11.8393C23.6786 16.8421 20.1632 22.2943 13.2236 28.254C12.8377 28.5855 12.3457 28.7675 11.837 28.7671C11.3283 28.7666 10.8366 28.5837 10.4514 28.2516L9.99236 27.8533C3.35993 22.049 0 16.7304 0 11.8393C0 5.30036 5.30036 0 11.8393 0ZM11.8393 7.28571C10.6316 7.28571 9.47338 7.76546 8.61942 8.61942C7.76546 9.47338 7.28571 10.6316 7.28571 11.8393C7.28571 13.047 7.76546 14.2052 8.61942 15.0591C9.47338 15.9131 10.6316 16.3929 11.8393 16.3929C13.047 16.3929 14.2052 15.9131 15.0591 15.0591C15.9131 14.2052 16.3929 13.047 16.3929 11.8393C16.3929 10.6316 15.9131 9.47338 15.0591 8.61942C14.2052 7.76546 13.047 7.28571 11.8393 7.28571Z" fill="#6A9070"/>
</svg>
