<svg width="24" height="24" viewBox="0 0 24 24" fill="none" xmlns="http://www.w3.org/2000/svg">
<path fill-rule="evenodd" clip-rule="evenodd" d="M16.9467 0.0710059C15.6686 0.0236686 14.0197 0 12 0C9.98028 0 8.33136 0.0236686 7.05325 0.0710059C5.9645 0.118343 4.99408 0.307692 4.14201 0.639053C3.3215 0.954635 2.61144 1.41223 2.01183 2.01183C1.41223 2.61144 0.954635 3.3215 0.639053 4.14201C0.307692 4.99408 0.118343 5.9645 0.0710059 7.05325C0.0236686 8.33136 0 9.98028 0 12C0 14.0197 0.0236686 15.6686 0.0710059 16.9467C0.118343 18.0355 0.307692 19.0059 0.639053 19.858C0.954635 20.6785 1.41223 21.3886 2.01183 21.9882C2.61144 22.5878 3.3215 23.0454 4.14201 23.3609C4.99408 23.6923 5.9645 23.8817 7.05325 23.929C8.33136 23.9763 9.98028 24 12 24C14.0197 24 15.6686 23.9763 16.9467 23.929C18.0355 23.8817 19.0059 23.6923 19.858 23.3609C20.6785 23.0454 21.3886 22.5878 21.9882 21.9882C22.5878 21.3886 23.0454 20.6785 23.3609 19.858C23.6923 19.0059 23.8817 18.0355 23.929 16.9467C23.9763 15.6686 24 14.0197 24 12C24 9.98028 23.9763 8.33136 23.929 7.05325C23.8817 5.9645 23.6923 4.99408 23.3609 4.14201C23.0454 3.3215 22.5878 2.61144 21.9882 2.01183C21.3886 1.41223 20.6785 0.954635 19.858 0.639053C19.0059 0.307692 18.0355 0.118343 16.9467 0.0710059ZM6.86391 1.63314C8.18935 1.5858 9.90138 1.56213 12 1.56213C14.0986 1.56213 15.8107 1.5858 17.1361 1.63314C17.9882 1.66469 18.7771 1.8146 19.503 2.08284C20.6391 2.55621 21.4438 3.36095 21.9172 4.49704C22.1854 5.22288 22.3353 6.01183 22.3669 6.86391C22.4142 8.18935 22.4379 9.90138 22.4379 12C22.4379 14.0986 22.4142 15.8107 22.3669 17.1361C22.3353 17.9882 22.1854 18.7771 21.9172 19.503C21.4438 20.6391 20.6391 21.4438 19.503 21.9172C18.7771 22.1854 17.9882 22.3353 17.1361 22.3669C16.4716 22.3906 15.7099 22.4084 14.8511 22.4202V15.8142H17.4911L17.8728 12.6205H14.8521V10.5574C14.8521 9.62696 15.0699 8.99461 16.3461 8.99461H18V6.10007C17.7181 6.06281 16.74 6 15.6154 6C13.2695 6 11.6716 7.47655 11.6716 10.2252V12.6205H9V15.8142H11.6706V22.4377C9.72155 22.4353 8.11932 22.4117 6.86391 22.3669C6.01183 22.3353 5.22288 22.1854 4.49704 21.9172C3.36095 21.4438 2.55621 20.6391 2.08284 19.503C1.8146 18.7771 1.66469 17.9882 1.63314 17.1361C1.5858 15.8107 1.56213 14.0986 1.56213 12C1.56213 9.90138 1.5858 8.18935 1.63314 6.86391C1.66469 6.01183 1.8146 5.22288 2.08284 4.49704C2.55621 3.36095 3.36095 2.55621 4.49704 2.08284C5.22288 1.8146 6.01183 1.66469 6.86391 1.63314Z" fill="#473232"/>
<path fill-rule="evenodd" clip-rule="evenodd" d="M16.9467 0.0710059C15.6686 0.0236686 14.0197 0 12 0C9.98028 0 8.33136 0.0236686 7.05325 0.0710059C5.9645 0.118343 4.99408 0.307692 4.14201 0.639053C3.3215 0.954635 2.61144 1.41223 2.01183 2.01183C1.41223 2.61144 0.954635 3.3215 0.639053 4.14201C0.307692 4.99408 0.118343 5.9645 0.0710059 7.05325C0.0236686 8.33136 0 9.98028 0 12C0 14.0197 0.0236686 15.6686 0.0710059 16.9467C0.118343 18.0355 0.307692 19.0059 0.639053 19.858C0.954635 20.6785 1.41223 21.3886 2.01183 21.9882C2.61144 22.5878 3.3215 23.0454 4.14201 23.3609C4.99408 23.6923 5.9645 23.8817 7.05325 23.929C8.33136 23.9763 9.98028 24 12 24C14.0197 24 15.6686 23.9763 16.9467 23.929C18.0355 23.8817 19.0059 23.6923 19.858 23.3609C20.6785 23.0454 21.3886 22.5878 21.9882 21.9882C22.5878 21.3886 23.0454 20.6785 23.3609 19.858C23.6923 19.0059 23.8817 18.0355 23.929 16.9467C23.9763 15.6686 24 14.0197 24 12C24 9.98028 23.9763 8.33136 23.929 7.05325C23.8817 5.9645 23.6923 4.99408 23.3609 4.14201C23.0454 3.3215 22.5878 2.61144 21.9882 2.01183C21.3886 1.41223 20.6785 0.954635 19.858 0.639053C19.0059 0.307692 18.0355 0.118343 16.9467 0.0710059ZM6.86391 1.63314C8.18935 1.5858 9.90138 1.56213 12 1.56213C14.0986 1.56213 15.8107 1.5858 17.1361 1.63314C17.9882 1.66469 18.7771 1.8146 19.503 2.08284C20.6391 2.55621 21.4438 3.36095 21.9172 4.49704C22.1854 5.22288 22.3353 6.01183 22.3669 6.86391C22.4142 8.18935 22.4379 9.90138 22.4379 12C22.4379 14.0986 22.4142 15.8107 22.3669 17.1361C22.3353 17.9882 22.1854 18.7771 21.9172 19.503C21.4438 20.6391 20.6391 21.4438 19.503 21.9172C18.7771 22.1854 17.9882 22.3353 17.1361 22.3669C16.4716 22.3906 15.7099 22.4084 14.8511 22.4202V15.8142H17.4911L17.8728 12.6205H14.8521V10.5574C14.8521 9.62696 15.0699 8.99461 16.3461 8.99461H18V6.10007C17.7181 6.06281 16.74 6 15.6154 6C13.2695 6 11.6716 7.47655 11.6716 10.2252V12.6205H9V15.8142H11.6706V22.4377C9.72155 22.4353 8.11932 22.4117 6.86391 22.3669C6.01183 22.3353 5.22288 22.1854 4.49704 21.9172C3.36095 21.4438 2.55621 20.6391 2.08284 19.503C1.8146 18.7771 1.66469 17.9882 1.63314 17.1361C1.5858 15.8107 1.56213 14.0986 1.56213 12C1.56213 9.90138 1.5858 8.18935 1.63314 6.86391C1.66469 6.01183 1.8146 5.22288 2.08284 4.49704C2.55621 3.36095 3.36095 2.55621 4.49704 2.08284C5.22288 1.8146 6.01183 1.66469 6.86391 1.63314Z" fill="#473232"/>
</svg>
