<svg width="1181" height="49" viewBox="0 0 1181 49" fill="none" xmlns="http://www.w3.org/2000/svg">
<path d="M533.158 37.1192C533.213 37.7209 532.609 38.2679 532.005 38.2679C529.425 38.2679 526.845 38.2679 524.21 38.2679C523.552 38.2679 523.058 37.7209 523.058 37.1192C523.058 35.3142 523.058 33.4544 523.058 31.6494C522.179 31.6494 521.246 31.6494 520.368 31.6494C520.368 32.3604 520.368 33.1262 520.203 33.8373C519.984 34.9313 519.27 35.8064 519.16 36.9551C519.106 37.6115 518.666 38.0491 518.008 38.1038C515.867 38.2679 513.726 37.9397 511.585 37.7209C510.927 37.6662 510.433 37.2286 510.433 36.5722C510.323 34.9313 510.817 33.2903 510.762 31.6494C509.609 31.6494 508.457 31.6494 507.359 31.6494C507.084 33.3997 506.59 35.1501 506.535 36.9551C506.535 37.6115 506.041 38.1038 505.383 38.1038C503.077 38.1038 500.772 38.2132 498.466 37.885C497.972 37.7756 497.643 37.2286 497.588 36.7363C497.478 35.0407 497.753 33.345 497.808 31.6494C496.326 31.6494 494.789 31.6494 493.307 31.6494C492.868 33.345 492.758 35.2048 492.922 36.9551C492.977 37.6115 492.373 38.1038 491.77 38.1038C489.684 38.1585 486.061 38.9243 484.305 37.3927C482.768 36.0799 483.097 33.6732 483.262 31.6494C482.274 31.6494 481.231 31.6494 480.243 31.6494C479.968 33.2356 479.584 34.7672 479.694 36.3534C479.694 36.791 479.309 37.3927 478.87 37.4474C476.345 37.8303 473.875 37.7209 471.35 37.6662C470.692 37.6662 470.198 37.1192 470.198 36.5175C470.198 34.8766 470.088 33.2356 470.033 31.5947C468.715 31.5947 467.343 31.5947 466.026 31.5947C465.971 33.2356 465.751 34.9313 465.422 36.5722C465.312 37.0645 464.763 37.4474 464.269 37.4474C462.348 37.5021 459.109 38.2132 457.518 36.7363C456.365 35.5877 456.53 33.5091 456.694 31.6494C455.542 31.6494 454.389 31.6494 453.181 31.6494C451.864 31.6494 450.546 31.6494 449.229 31.6494C449.174 33.6185 449.01 35.5877 448.406 37.4474C448.241 37.9397 447.802 38.3226 447.308 38.3226C445.112 38.2679 442.917 37.9944 440.666 37.9397C440.007 37.9397 439.513 37.4474 439.513 36.791C439.513 35.0954 439.513 33.3997 439.513 31.7041C438.196 31.7041 436.879 31.7041 435.561 31.7041C435.451 33.3997 435.232 35.0954 435.232 36.791C435.232 37.4474 434.683 37.9397 434.079 37.9397C431.938 37.9397 429.798 37.9397 427.657 37.9397C426.998 37.9397 426.504 37.3927 426.504 36.791C426.449 35.0954 426.01 33.3997 425.955 31.7041C424.363 31.7041 422.772 31.7041 421.235 31.7041C421.564 33.9467 422.223 36.4628 421.07 38.432C420.411 39.5259 418.984 39.5806 417.886 39.4165C415.91 39.1431 413.989 38.5961 411.958 38.5414C411.299 38.4867 410.805 38.0491 410.805 37.3927C410.805 35.4783 410.805 33.6185 410.805 31.7041C409.323 31.7041 407.896 31.7041 406.414 31.7041C406.03 33.8373 405.81 35.9705 405.92 38.1585C405.975 38.8696 405.371 39.2525 404.767 39.3072C402.187 39.5806 399.662 38.5961 397.137 39.0884C396.314 39.2525 395.381 38.5414 395.71 37.6662C396.369 35.7518 396.149 33.7279 396.094 31.7041C394.832 31.7041 393.569 31.7041 392.362 31.7041C392.142 33.7279 392.307 35.7518 391.593 37.7209C391.429 38.2132 391.044 38.5414 390.496 38.5961C388.41 38.6508 386.214 39.0337 384.238 38.2679C383.195 37.8303 382.756 37.2833 382.756 36.1346C382.756 34.6578 382.756 33.2356 382.756 31.7588C381.274 31.7588 379.792 31.7588 378.31 31.7588C378.419 33.7279 378.694 35.8065 377.871 37.6115C377.267 38.979 376.389 38.8149 375.016 38.8149C373.534 38.8149 371.997 38.8149 370.46 38.8149C369.802 38.8149 369.308 38.2679 369.308 37.6662C369.308 35.6971 368.868 33.7826 368.759 31.8135C367.496 31.8135 366.234 31.8135 364.971 31.8135C364.861 33.6732 364.752 35.533 365.191 37.3927C365.301 37.9944 365.026 38.6508 364.367 38.8149C362.007 39.4712 357.89 40.0182 355.859 38.2679C354.158 36.8457 354.981 33.9467 355.146 31.8135C353.664 31.8135 352.127 31.8135 350.645 31.8135C350.535 33.6732 350.205 35.4783 350.315 37.2833C350.37 37.885 349.766 38.432 349.163 38.432C346.583 38.432 344.003 38.432 341.368 38.432C340.709 38.432 340.215 37.885 340.215 37.2833C340.215 35.4783 340.215 33.6185 340.215 31.8135C339.337 31.8135 338.404 31.8135 337.526 31.8135C337.526 32.5245 337.526 33.2903 337.361 34.0014C337.141 35.0954 336.428 35.9705 336.318 37.1192C336.263 37.7756 335.824 38.2132 335.165 38.2679C333.025 38.432 330.884 38.1038 328.743 37.885C328.084 37.8303 327.59 37.3927 327.59 36.7363C327.481 35.0954 327.975 33.4544 327.92 31.8135C326.767 31.8135 325.614 31.8135 324.516 31.8135C324.242 33.5638 323.748 35.3142 323.693 37.1192C323.693 37.7756 323.199 38.2679 322.54 38.2679C320.235 38.2679 317.929 38.3773 315.624 38.0491C315.13 37.9397 314.801 37.3927 314.746 36.9004C314.636 35.2048 314.91 33.5091 314.965 31.8135C313.483 31.8135 311.946 31.8135 310.464 31.8135C310.025 33.5091 309.915 35.3689 310.08 37.1192C310.135 37.7756 309.531 38.2679 308.927 38.2679C306.841 38.3226 303.219 39.0884 301.517 37.5568C299.98 36.244 300.309 33.8373 300.474 31.8135C299.486 31.8135 298.443 31.8135 297.455 31.8135C297.181 33.3997 296.851 34.9313 296.906 36.5175C296.906 36.9551 296.522 37.5568 296.028 37.6115C293.393 37.8303 290.923 37.7209 288.398 37.7209C287.739 37.7209 287.245 37.1739 287.245 36.5722C287.245 34.9313 287.136 33.2903 287.081 31.6494C285.763 31.6494 284.391 31.6494 283.074 31.6494C283.074 33.2903 282.799 34.986 282.47 36.6269C282.36 37.1192 281.811 37.5021 281.317 37.5021C279.396 37.5568 276.157 38.2679 274.565 36.791C273.413 35.6424 273.577 33.5638 273.742 31.7041C272.589 31.7041 271.437 31.7041 270.229 31.7041C268.912 31.7041 267.594 31.7041 266.277 31.7041C266.222 33.6732 266.057 35.6424 265.454 37.5021C265.289 37.9944 264.85 38.3773 264.301 38.3773C262.105 38.3226 259.91 38.0491 257.714 37.9944C257.11 37.9944 256.561 37.5021 256.561 36.8457C256.561 35.1501 256.561 33.4544 256.561 31.7588C255.244 31.7588 253.926 31.7588 252.664 31.7588C252.554 33.4544 252.335 35.1501 252.335 36.8457C252.335 37.5021 251.841 37.9944 251.182 37.9944C249.041 37.9944 246.9 37.9944 244.76 37.9944C244.101 37.9944 243.607 37.4474 243.607 36.8457C243.552 35.1501 243.113 33.4544 243.058 31.7588C241.466 31.7588 239.874 31.7588 238.337 31.7588C238.667 34.0014 239.325 36.5175 238.173 38.4867C237.514 39.5806 236.087 39.6353 234.989 39.4712C233.013 39.1978 231.092 38.6508 229.061 38.5961C228.402 38.5414 227.908 38.1038 227.908 37.4474C227.908 35.533 227.908 33.6732 227.908 31.7588C226.426 31.7588 224.999 31.7588 223.517 31.7588C223.078 33.892 222.913 36.0252 223.023 38.2132C223.078 38.9243 222.474 39.3071 221.87 39.3618C219.29 39.6353 216.765 38.6508 214.24 39.1431C213.417 39.3071 212.484 38.5961 212.813 37.7209C213.472 35.8065 213.252 33.7826 213.197 31.7588C211.935 31.7588 210.727 31.7588 209.465 31.7588C209.135 33.6185 209.3 35.6971 208.586 37.6115C208.422 38.1038 208.037 38.432 207.434 38.4867C205.348 38.5414 203.152 38.9243 201.176 38.1585C200.133 37.7209 199.694 37.1739 199.694 36.0252C199.694 34.5484 199.694 33.1262 199.694 31.6494C198.212 31.6494 196.73 31.6494 195.248 31.6494C195.358 33.6185 195.632 35.6971 194.809 37.5021C194.205 38.8696 193.327 38.7055 191.954 38.7055C190.472 38.7055 188.935 38.7055 187.398 38.7055C186.74 38.7055 186.246 38.1585 186.246 37.5568C186.246 35.5877 185.807 33.6732 185.697 31.7041C184.434 31.7041 183.172 31.7041 181.909 31.7041C181.799 33.5638 181.69 35.4236 182.129 37.2833C182.239 37.885 181.964 38.5414 181.305 38.7055C178.945 39.3618 174.828 39.9088 172.797 38.1585C171.041 36.7363 171.919 33.8373 172.084 31.7041C170.602 31.7041 169.065 31.7041 167.583 31.7041C167.473 33.5638 167.144 35.3689 167.253 37.1739C167.308 37.7756 166.704 38.3226 166.101 38.3226C163.521 38.3226 160.941 38.3226 158.306 38.3226C157.647 38.3226 157.153 37.7756 157.153 37.1739C157.153 35.3689 157.153 33.5091 157.153 31.7041C156.275 31.7041 155.342 31.7041 154.464 31.7041C154.464 32.4151 154.464 33.1809 154.299 33.892C154.079 34.986 153.366 35.8611 153.256 37.0098C153.201 37.6662 152.762 38.1038 152.103 38.1585C149.963 38.3226 147.822 37.9944 145.681 37.7756C145.022 37.7209 144.528 37.2833 144.528 36.6269C144.419 34.986 144.913 33.345 144.913 31.7041C143.76 31.7041 142.607 31.7041 141.509 31.7041C141.235 33.4544 140.741 35.2048 140.686 37.0098C140.686 37.6662 140.192 38.1585 139.533 38.1585C137.228 38.1585 134.922 38.2679 132.617 37.9397C132.068 37.8303 131.794 37.2833 131.739 36.791C131.629 35.0954 131.903 33.3997 131.958 31.7041C130.476 31.7041 128.994 31.7041 127.457 31.7041C127.018 33.3997 126.908 35.2595 127.073 37.0098C127.128 37.6662 126.524 38.1585 125.92 38.1585C123.834 38.2132 120.212 38.979 118.51 37.4474C116.973 36.1346 117.247 33.7279 117.467 31.7041C116.479 31.7041 115.436 31.7041 114.448 31.7041C114.174 33.2903 113.844 34.8219 113.899 36.4081C113.899 36.8457 113.515 37.4474 113.021 37.5021C110.496 37.885 108.026 37.7756 105.501 37.7209C104.842 37.7209 104.348 37.1739 104.348 36.5722C104.348 34.9313 104.238 33.2903 104.183 31.6494C102.866 31.6494 101.494 31.6494 100.176 31.6494C100.121 33.2903 99.9019 34.986 99.5725 36.6269C99.4627 37.1192 98.9138 37.5021 98.4198 37.5021C96.4986 37.5568 93.26 38.2679 91.6682 36.791C90.5155 35.6424 90.6802 33.5638 90.8448 31.7041C89.6921 31.7041 88.5394 31.7041 87.3318 31.7041C86.0144 31.7041 84.697 31.7041 83.3796 31.7041C83.3247 33.6732 83.1601 35.6424 82.5563 37.5021C82.3916 37.9944 81.9525 38.3773 81.4585 38.3773C79.2628 38.3226 77.0672 38.0491 74.8715 37.9944C74.2128 37.9944 73.7188 37.5021 73.7188 36.8457C73.7188 35.1501 73.7188 33.4544 73.7188 31.7588C72.4014 31.7588 71.084 31.7588 69.8215 31.7588C69.7117 33.4544 69.4922 35.1501 69.4922 36.8457C69.4922 37.5021 68.9982 37.9944 68.3395 37.9944C66.1987 37.9944 64.058 37.9944 61.9172 37.9944C61.2585 37.9944 60.7645 37.4474 60.7645 36.8457C60.7096 35.1501 60.2705 33.4544 60.2156 31.7588C58.6237 31.7588 57.0319 31.7588 55.4949 31.7588C55.8243 34.0014 56.483 36.5175 55.3303 38.4867C54.6716 39.5806 53.2444 39.6353 52.1466 39.4712C50.0058 39.0884 48.0297 38.5414 46.0537 38.4867C45.4499 38.432 44.901 37.9944 44.901 37.338C44.901 35.4236 44.901 33.5638 44.901 31.6494C43.4189 31.6494 41.9917 31.6494 40.5097 31.6494C40.0705 33.7826 39.9059 35.9158 40.0156 38.1038C40.0705 38.8149 39.4667 39.1978 38.8629 39.2525C36.283 39.5259 33.758 38.5414 31.2331 39.0337C30.4097 39.1431 29.4765 38.4867 29.8059 37.6115C30.4646 35.6971 30.245 33.6732 30.1901 31.6494C28.9276 31.6494 27.72 31.6494 26.4575 31.6494C26.1831 33.6185 26.3477 35.6971 25.6342 37.6115C25.4695 38.1038 25.0852 38.432 24.5363 38.4867C22.4505 38.4867 20.1999 38.9243 18.2239 38.1038C17.1809 37.7209 16.6869 37.1192 16.6869 36.0252C16.6869 34.5484 16.6869 33.1262 16.6869 31.6494C15.2048 31.6494 13.7228 31.6494 12.2407 31.6494C12.4054 33.6185 12.625 35.6971 11.8565 37.4474C11.1978 38.8149 10.3744 38.6508 9.00215 38.6508C7.46519 38.6508 5.98313 38.6508 4.44618 38.6508C3.84238 38.6508 3.29347 38.1585 3.29347 37.5021C3.29347 35.533 2.90923 33.6185 2.74456 31.6494C1.81141 31.6494 0.878258 31.6494 0 31.6494V27C29.0923 27 58.2395 27 87.3318 27C148.316 27 209.3 27 270.284 27C331.268 27 392.252 27 453.236 27C481.121 27 509.06 27 536.945 27V31.6494C535.792 31.6494 534.64 31.6494 533.432 31.6494C533.377 33.4544 533.048 35.2595 533.158 37.1192Z" fill="#B74E42"/>
<path d="M466.3 16.7378L467.233 15.972L468.057 15.3157L468.496 14.9875L468.825 14.7687C468.825 14.7687 476.62 7.16558 477.992 6.12631L478.541 5.68873L479.419 5.03234C480.078 4.54006 480.737 4.15717 481.56 4.32126C482.328 4.43066 483.097 4.86825 483.81 5.41523L484.25 5.74342L484.579 6.01692L485.238 6.5639C486.939 8.04076 488.476 9.57232 489.903 10.9945C492.758 13.8388 495.008 15.9173 495.063 15.8626C496.49 17.5036 499.345 20.1291 499.125 20.7308L499.015 21.059L498.796 21.8795C495.941 21.9889 469.264 22.5359 468.221 22.3718C467.069 22.2077 466.575 22.0436 466.575 22.0436C466.575 22.0436 466.026 21.9889 465.257 21.8248C464.489 21.6607 463.501 21.4966 462.458 21.1137C463.062 20.2932 463.72 19.4727 464.379 18.6523C464.928 17.9412 465.641 17.2301 466.3 16.7378Z" fill="#B74E42"/>
<path d="M387.641 21.77H387.037L385.94 21.8247C383.744 21.9341 382.207 22.1529 380.56 22.4264C379.627 22.5358 379.298 22.6999 378.749 22.8093C378.255 22.9187 377.761 23.0828 377.212 23.1921C376.498 23.3562 370.021 23.3562 367.551 23.3015C357.945 23.0828 348.998 22.5905 348.998 22.5905C345.375 22.2076 342.96 21.8247 342.905 21.8247C342.685 21.8247 342.521 21.7153 342.411 21.4965C342.301 21.3324 342.301 21.1136 342.301 20.9495C342.191 20.9495 342.082 20.9495 342.027 20.9495L342.301 20.6213C342.246 20.5666 342.191 20.5666 342.136 20.5119C341.972 20.3478 341.862 20.1837 341.862 20.0196C341.807 19.8555 341.862 19.6914 341.972 19.582C342.576 19.1445 349.327 12.7447 357.177 5.85274C359.153 4.15708 361.074 2.40673 363.434 0.765778C363.599 0.656382 363.764 0.546985 363.928 0.437588C364.038 0.382889 364.148 0.328191 364.313 0.273492C364.532 0.109397 364.587 0 365.355 0C365.41 0 365.355 0 365.575 0.0546985C365.74 0.0546985 365.959 0.164095 366.014 0.164095C366.179 0.218794 366.289 0.273492 366.398 0.328191C366.618 0.437588 366.783 0.546985 366.947 0.656382C367.551 1.09397 368.1 1.47686 368.594 1.85975C369.637 2.68022 370.57 3.5007 371.503 4.26648C375.126 7.43899 378.145 10.2286 379.956 11.8696C380.396 12.2525 380.835 12.7994 381.384 13.4011L383.14 15.5891C385.171 17.9958 386.818 20.0743 388.19 21.6059C388.135 21.77 387.861 21.7153 387.641 21.77Z" fill="#B74E42"/>
<path d="M315.734 21.9342C312.879 22.0436 286.202 22.5905 285.159 22.4265C284.007 22.2624 283.513 22.0983 283.513 22.0983C283.513 22.0983 282.964 22.0436 282.195 21.8795C281.427 21.7154 280.439 21.5513 279.396 21.1684C280 20.3479 280.658 19.5274 281.317 18.707C281.976 17.9412 282.689 17.1754 283.348 16.6831L284.281 15.9173L285.05 15.261L285.489 14.9328L285.818 14.714C285.818 14.714 293.613 7.11089 294.985 6.07162L295.534 5.63403L296.412 5.03234C297.071 4.54006 297.729 4.15717 298.553 4.32126C299.321 4.43066 300.09 4.86825 300.803 5.41523L301.243 5.74342L301.572 6.01692L302.231 6.5639C303.932 8.04076 305.469 9.57232 306.896 10.9945C309.751 13.8388 312.001 15.9173 312.001 15.8626C313.428 17.5036 316.283 20.1291 316.063 20.7308L315.953 21.059L315.734 21.9342Z" fill="#B74E42"/>
<path d="M444.124 14.7683L444.673 15.37C445.277 16.0264 445.826 16.6828 446.43 17.3939C447.582 18.816 448.186 20.0741 448.845 21.1681C448.79 21.3322 450.162 23.0825 449.888 23.1372L418.545 23.0278C416.953 22.809 415.745 22.5902 414.922 22.4261L413.879 22.262L413.715 21.5509C413.44 20.457 413.879 19.8006 413.879 19.8006C413.989 19.5271 414.209 19.4177 414.428 19.4177C414.648 19.4177 414.867 19.5271 415.032 19.6912C415.087 19.7459 415.142 19.8006 415.197 19.8553C415.142 19.8006 415.087 19.7459 415.087 19.6912C414.977 19.5271 414.922 19.3083 414.867 19.1442C414.867 18.9801 414.867 18.8707 414.977 18.816C415.197 18.7613 416.679 17.7221 418.71 15.917C420.741 14.112 423.266 11.5411 426.065 8.80621C426.779 8.14982 427.492 7.43875 428.261 6.78236C428.48 6.61827 428.59 6.50887 428.919 6.23538C429.194 6.01658 429.523 5.79779 429.852 5.6337C430.511 5.3055 431.225 4.97731 431.938 5.25081C432.597 5.4696 433.201 6.01658 433.805 6.39947L434.957 7.27465L437.098 8.9703C439.898 11.2129 442.203 13.1821 443.63 14.3308C443.85 14.4948 443.96 14.6042 444.124 14.7683Z" fill="#B74E42"/>
<path d="M204.085 21.77L203.042 21.8247C200.847 21.9341 199.31 22.1529 197.663 22.4264C196.73 22.5358 196.401 22.6999 195.852 22.8093C195.358 22.9187 194.864 23.0828 194.315 23.1921C193.601 23.3562 187.124 23.3562 184.654 23.3015C175.048 23.0828 166.101 22.5905 166.101 22.5905C162.478 22.2076 160.063 21.8247 160.008 21.8247C159.788 21.8247 159.623 21.7153 159.514 21.4965C159.404 21.3324 159.404 21.1136 159.404 20.9495C159.294 20.9495 159.184 20.9495 159.129 20.9495L159.404 20.6213C159.349 20.5666 159.294 20.5666 159.239 20.5119C159.075 20.3478 158.965 20.1837 158.965 20.0196C158.91 19.8555 158.965 19.6914 159.075 19.582C159.678 19.1445 166.43 12.7447 174.279 5.85274C176.255 4.15708 178.177 2.40673 180.537 0.765778C180.702 0.656382 180.866 0.546985 181.031 0.437588C181.141 0.382889 181.251 0.328191 181.36 0.273492C181.58 0.109397 181.635 0 182.403 0C182.458 0 182.403 0 182.623 0.0546985C182.788 0.0546985 183.007 0.164095 183.062 0.164095C183.227 0.218794 183.336 0.273492 183.446 0.328191C183.666 0.437588 183.83 0.546985 183.995 0.656382C184.599 1.09397 185.148 1.47686 185.642 1.85975C186.685 2.68022 187.618 3.5007 188.551 4.26648C192.174 7.43899 195.193 10.2286 197.004 11.8696C197.443 12.2525 197.883 12.7994 198.431 13.4011L200.188 15.5891C202.219 17.9958 203.866 20.0743 205.238 21.6059C205.238 21.6606 204.909 21.6606 204.744 21.6606L204.085 21.77Z" fill="#B74E42"/>
<path d="M132.727 21.9342C129.872 22.0436 103.195 22.5905 102.152 22.4265C101 22.2624 100.506 22.0983 100.506 22.0983C100.506 22.0983 99.9567 22.0436 99.1882 21.8795C98.4198 21.7154 97.4317 21.5513 96.3888 21.1684C96.9926 20.3479 97.6513 19.5274 98.31 18.707C98.9687 17.9412 99.6823 17.1754 100.341 16.6831L101.274 15.9173L102.097 15.3157L102.537 14.9875L102.866 14.7687C102.866 14.7687 110.66 7.16558 112.033 6.12631L112.582 5.68873L113.46 5.03234C114.119 4.54006 114.777 4.15717 115.601 4.32126C116.369 4.43066 117.138 4.86825 117.851 5.41523L118.29 5.74342L118.62 6.01692L119.278 6.5639C120.98 8.04076 122.517 9.57232 123.944 10.9945C126.798 13.8388 129.049 15.9173 129.104 15.8626C130.531 17.5036 133.385 20.1291 133.166 20.7308L133.056 21.059L132.727 21.9342Z" fill="#B74E42"/>
<path d="M231.97 22.4808L230.927 22.262L230.762 21.5509C230.488 20.457 230.982 19.8006 230.927 19.8006C231.037 19.5271 231.256 19.4177 231.476 19.4177C231.695 19.4177 231.915 19.5271 232.08 19.6912C232.135 19.7459 232.189 19.8006 232.244 19.8553C232.244 19.8006 232.189 19.7459 232.189 19.6912C232.08 19.5271 232.025 19.3083 231.97 19.1442C231.97 18.9801 231.97 18.8707 232.08 18.816C232.299 18.7613 233.781 17.7221 235.812 15.917C237.843 14.112 240.368 11.5411 243.168 8.80621C243.881 8.14982 244.595 7.43875 245.363 6.78236C245.583 6.61827 245.693 6.50887 246.022 6.23538C246.351 6.01658 246.626 5.79779 246.955 5.6337C247.614 5.3055 248.327 4.97731 248.986 5.25081C249.645 5.4696 250.249 5.96189 250.852 6.39947L252.005 7.27465L254.201 8.9703C257 11.2129 259.306 13.1821 260.733 14.3308C260.843 14.4401 261.007 14.6042 261.172 14.7683L261.721 15.37C262.325 16.0264 262.929 16.6828 263.477 17.3939C264.63 18.816 265.234 20.0741 265.893 21.1681C265.838 21.3322 267.265 23.0825 266.936 23.1372L235.593 23.0278C234.001 22.8637 232.738 22.6449 231.97 22.4808Z" fill="#B74E42"/>
<path d="M0.439129 0.328402C0.658694 0.437799 0.823367 0.547196 0.988041 0.656593C1.59184 1.09418 2.14075 1.47707 2.63477 1.85996C3.67771 2.68044 4.61086 3.50091 5.544 4.26669C9.16682 7.4392 12.1858 10.2288 13.9972 11.8698C14.4364 12.2527 14.8755 12.7996 15.4244 13.4013L17.1809 15.5893C19.2119 18.0507 20.8586 20.1292 22.2309 21.6608C22.2309 21.7155 21.9016 21.7155 21.7369 21.7155H21.1331L20.0353 21.7702C17.8396 21.8796 16.3576 22.0984 14.6559 22.3719C13.7228 22.4813 13.3934 22.6454 12.8445 22.7548C12.3505 22.8642 11.8565 23.0283 11.3076 23.1377C10.594 23.2471 4.11684 23.3018 1.70163 23.1924C1.09782 23.1924 0.548911 23.1924 0 23.1377V0.164307H0.0548911C0.219565 0.219005 0.329347 0.273704 0.439129 0.328402Z" fill="#B74E42"/>
<path d="M1165.79 1.1641C1165.57 1.27349 1165.41 1.38289 1165.24 1.49229C1164.64 1.92987 1164.09 2.31276 1163.6 2.69565C1162.55 3.51613 1161.62 4.33661 1160.69 5.10238C1157.06 8.27489 1154.05 11.0645 1152.23 12.7055C1151.79 13.0884 1151.36 13.6353 1150.81 14.237L1149.05 16.425C1147.02 18.8864 1145.37 20.9649 1144 22.4965C1144 22.5512 1144.33 22.5512 1144.49 22.5512H1145.1L1146.2 22.6059C1148.39 22.7153 1149.87 22.9341 1151.58 23.2076C1152.51 23.317 1152.84 23.4811 1153.39 23.5905C1153.88 23.6999 1154.37 23.864 1154.92 23.9733C1155.64 24.0827 1162.11 24.1374 1164.53 24.028C1165.13 24.028 1165.68 24.028 1166.23 23.9733V1H1166.18C1166.01 1.0547 1165.9 1.1094 1165.79 1.1641Z" fill="#B74E42"/>
<path d="M48.9629 22.4808L47.9748 22.262L47.8102 21.5509C47.5906 20.457 48.0297 19.8006 47.9748 19.8006C48.0846 19.5271 48.3042 19.4177 48.5237 19.4177C48.7433 19.4177 48.9629 19.5271 49.1275 19.6912C49.1824 19.7459 49.2373 19.8006 49.2922 19.8553C49.2922 19.8006 49.2373 19.7459 49.2373 19.6912C49.1275 19.5271 49.0178 19.3083 49.0178 19.1442C49.0178 18.9801 49.0178 18.8707 49.1275 18.816C49.3471 18.7613 50.8292 17.7221 52.8601 15.917C54.8911 14.112 57.4161 11.5411 60.2156 8.80621C60.9291 8.14982 61.6427 7.43875 62.4112 6.78236C62.6308 6.61827 62.7405 6.50887 63.0699 6.23538C63.3992 6.01658 63.6737 5.79779 64.003 5.6337C64.6068 5.3055 65.3753 4.97731 66.034 5.25081C66.6927 5.4696 67.2965 6.01658 67.9003 6.39947L69.053 7.27465L71.2487 8.9703C74.0481 11.2129 76.3535 13.1821 77.7807 14.3308C77.8905 14.4401 78.0552 14.6042 78.2198 14.7683L78.7688 15.37C79.3726 16.0264 79.9764 16.6828 80.5253 17.3939C81.678 18.816 82.2269 20.0741 82.9405 21.1681C82.8856 21.3322 84.3128 23.0825 83.9834 23.1372L52.6406 23.0278C51.0487 22.8637 49.7862 22.6449 48.9629 22.4808Z" fill="#B74E42"/>
<path d="M1068.16 37.1192C1068.21 37.7209 1067.61 38.2679 1067 38.2679C1064.42 38.2679 1061.85 38.2679 1059.21 38.2679C1058.55 38.2679 1058.06 37.7209 1058.06 37.1192C1058.06 35.3142 1058.06 33.4544 1058.06 31.6494C1057.18 31.6494 1056.25 31.6494 1055.37 31.6494C1055.37 32.3604 1055.37 33.1262 1055.2 33.8373C1054.98 34.9313 1054.27 35.8064 1054.16 36.9551C1054.11 37.6115 1053.67 38.0491 1053.01 38.1038C1050.87 38.2679 1048.73 37.9397 1046.59 37.7209C1045.93 37.6662 1045.43 37.2286 1045.43 36.5722C1045.32 34.9313 1045.82 33.2903 1045.76 31.6494C1044.61 31.6494 1043.46 31.6494 1042.36 31.6494C1042.08 33.3997 1041.59 35.1501 1041.54 36.9551C1041.54 37.6115 1041.04 38.1038 1040.38 38.1038C1038.08 38.1038 1035.77 38.2132 1033.47 37.885C1032.97 37.7756 1032.64 37.2286 1032.59 36.7363C1032.48 35.0407 1032.75 33.345 1032.81 31.6494C1031.33 31.6494 1029.79 31.6494 1028.31 31.6494C1027.87 33.345 1027.76 35.2048 1027.92 36.9551C1027.98 37.6115 1027.37 38.1038 1026.77 38.1038C1024.68 38.1585 1021.06 38.9243 1019.3 37.3927C1017.77 36.0799 1018.1 33.6732 1018.26 31.6494C1017.27 31.6494 1016.23 31.6494 1015.24 31.6494C1014.97 33.2356 1014.58 34.7672 1014.69 36.3534C1014.69 36.791 1014.31 37.3927 1013.87 37.4474C1011.35 37.8303 1008.88 37.7209 1006.35 37.6662C1005.69 37.6662 1005.2 37.1192 1005.2 36.5175C1005.2 34.8766 1005.09 33.2356 1005.03 31.5947C1003.72 31.5947 1002.34 31.5947 1001.03 31.5947C1000.97 33.2356 1000.75 34.9313 1000.42 36.5722C1000.31 37.0645 999.763 37.4474 999.269 37.4474C997.348 37.5021 994.109 38.2132 992.518 36.7363C991.365 35.5877 991.53 33.5091 991.694 31.6494C990.542 31.6494 989.389 31.6494 988.181 31.6494C986.864 31.6494 985.546 31.6494 984.229 31.6494C984.174 33.6185 984.01 35.5877 983.406 37.4474C983.241 37.9397 982.802 38.3226 982.308 38.3226C980.112 38.2679 977.917 37.9944 975.666 37.9397C975.007 37.9397 974.513 37.4474 974.513 36.791C974.513 35.0954 974.513 33.3997 974.513 31.7041C973.196 31.7041 971.879 31.7041 970.561 31.7041C970.451 33.3997 970.232 35.0954 970.232 36.791C970.232 37.4474 969.683 37.9397 969.079 37.9397C966.938 37.9397 964.798 37.9397 962.657 37.9397C961.998 37.9397 961.504 37.3927 961.504 36.791C961.449 35.0954 961.01 33.3997 960.955 31.7041C959.363 31.7041 957.772 31.7041 956.235 31.7041C956.564 33.9467 957.223 36.4628 956.07 38.432C955.411 39.5259 953.984 39.5806 952.886 39.4165C950.91 39.1431 948.989 38.5961 946.958 38.5414C946.299 38.4867 945.805 38.0491 945.805 37.3927C945.805 35.4783 945.805 33.6185 945.805 31.7041C944.323 31.7041 942.896 31.7041 941.414 31.7041C941.03 33.8373 940.81 35.9705 940.92 38.1585C940.975 38.8696 940.371 39.2525 939.767 39.3072C937.187 39.5806 934.662 38.5961 932.137 39.0884C931.314 39.2525 930.381 38.5414 930.71 37.6662C931.369 35.7518 931.149 33.7279 931.094 31.7041C929.832 31.7041 928.569 31.7041 927.362 31.7041C927.142 33.7279 927.307 35.7518 926.593 37.7209C926.429 38.2132 926.044 38.5414 925.496 38.5961C923.41 38.6508 921.214 39.0337 919.238 38.2679C918.195 37.8303 917.756 37.2833 917.756 36.1346C917.756 34.6578 917.756 33.2356 917.756 31.7588C916.274 31.7588 914.792 31.7588 913.31 31.7588C913.419 33.7279 913.694 35.8065 912.871 37.6115C912.267 38.979 911.389 38.8149 910.016 38.8149C908.534 38.8149 906.997 38.8149 905.46 38.8149C904.802 38.8149 904.308 38.2679 904.308 37.6662C904.308 35.6971 903.868 33.7826 903.759 31.8135C902.496 31.8135 901.234 31.8135 899.971 31.8135C899.861 33.6732 899.752 35.533 900.191 37.3927C900.301 37.9944 900.026 38.6508 899.367 38.8149C897.007 39.4712 892.89 40.0182 890.859 38.2679C889.158 36.8457 889.981 33.9467 890.146 31.8135C888.664 31.8135 887.127 31.8135 885.645 31.8135C885.535 33.6732 885.205 35.4783 885.315 37.2833C885.37 37.885 884.766 38.432 884.163 38.432C881.583 38.432 879.003 38.432 876.368 38.432C875.709 38.432 875.215 37.885 875.215 37.2833C875.215 35.4783 875.215 33.6185 875.215 31.8135C874.337 31.8135 873.404 31.8135 872.526 31.8135C872.526 32.5245 872.526 33.2903 872.361 34.0014C872.141 35.0954 871.428 35.9705 871.318 37.1192C871.263 37.7756 870.824 38.2132 870.165 38.2679C868.025 38.432 865.884 38.1038 863.743 37.885C863.084 37.8303 862.59 37.3927 862.59 36.7363C862.481 35.0954 862.975 33.4544 862.92 31.8135C861.767 31.8135 860.614 31.8135 859.516 31.8135C859.242 33.5638 858.748 35.3142 858.693 37.1192C858.693 37.7756 858.199 38.2679 857.54 38.2679C855.235 38.2679 852.929 38.3773 850.624 38.0491C850.13 37.9397 849.801 37.3927 849.746 36.9004C849.636 35.2048 849.91 33.5091 849.965 31.8135C848.483 31.8135 846.946 31.8135 845.464 31.8135C845.025 33.5091 844.915 35.3689 845.08 37.1192C845.135 37.7756 844.531 38.2679 843.927 38.2679C841.841 38.3226 838.219 39.0884 836.517 37.5568C834.98 36.244 835.309 33.8373 835.474 31.8135C834.486 31.8135 833.443 31.8135 832.455 31.8135C832.181 33.3997 831.851 34.9313 831.906 36.5175C831.906 36.9551 831.522 37.5568 831.028 37.6115C828.393 37.8303 825.923 37.7209 823.398 37.7209C822.739 37.7209 822.245 37.1739 822.245 36.5722C822.245 34.9313 822.136 33.2903 822.081 31.6494C820.763 31.6494 819.391 31.6494 818.074 31.6494C818.074 33.2903 817.799 34.986 817.47 36.6269C817.36 37.1192 816.811 37.5021 816.317 37.5021C814.396 37.5568 811.157 38.2679 809.565 36.791C808.413 35.6424 808.577 33.5638 808.742 31.7041C807.589 31.7041 806.437 31.7041 805.229 31.7041C803.912 31.7041 802.594 31.7041 801.277 31.7041C801.222 33.6732 801.057 35.6424 800.454 37.5021C800.289 37.9944 799.85 38.3773 799.301 38.3773C797.105 38.3226 794.91 38.0491 792.714 37.9944C792.11 37.9944 791.561 37.5021 791.561 36.8457C791.561 35.1501 791.561 33.4544 791.561 31.7588C790.244 31.7588 788.926 31.7588 787.664 31.7588C787.554 33.4544 787.335 35.1501 787.335 36.8457C787.335 37.5021 786.841 37.9944 786.182 37.9944C784.041 37.9944 781.9 37.9944 779.76 37.9944C779.101 37.9944 778.607 37.4474 778.607 36.8457C778.552 35.1501 778.113 33.4544 778.058 31.7588C776.466 31.7588 774.874 31.7588 773.337 31.7588C773.667 34.0014 774.325 36.5175 773.173 38.4867C772.514 39.5806 771.087 39.6353 769.989 39.4712C768.013 39.1978 766.092 38.6508 764.061 38.5961C763.402 38.5414 762.908 38.1038 762.908 37.4474C762.908 35.533 762.908 33.6732 762.908 31.7588C761.426 31.7588 759.999 31.7588 758.517 31.7588C758.078 33.892 757.913 36.0252 758.023 38.2132C758.078 38.9243 757.474 39.3071 756.87 39.3618C754.29 39.6353 751.765 38.6508 749.24 39.1431C748.417 39.3071 747.484 38.5961 747.813 37.7209C748.472 35.8065 748.252 33.7826 748.197 31.7588C746.935 31.7588 745.727 31.7588 744.465 31.7588C744.135 33.6185 744.3 35.6971 743.586 37.6115C743.422 38.1038 743.037 38.432 742.434 38.4867C740.348 38.5414 738.152 38.9243 736.176 38.1585C735.133 37.7209 734.694 37.1739 734.694 36.0252C734.694 34.5484 734.694 33.1262 734.694 31.6494C733.212 31.6494 731.73 31.6494 730.248 31.6494C730.358 33.6185 730.632 35.6971 729.809 37.5021C729.205 38.8696 728.327 38.7055 726.954 38.7055C725.472 38.7055 723.935 38.7055 722.398 38.7055C721.74 38.7055 721.246 38.1585 721.246 37.5568C721.246 35.5877 720.807 33.6732 720.697 31.7041C719.434 31.7041 718.172 31.7041 716.909 31.7041C716.799 33.5638 716.69 35.4236 717.129 37.2833C717.239 37.885 716.964 38.5414 716.305 38.7055C713.945 39.3618 709.828 39.9088 707.797 38.1585C706.041 36.7363 706.919 33.8373 707.084 31.7041C705.602 31.7041 704.065 31.7041 702.583 31.7041C702.473 33.5638 702.144 35.3689 702.253 37.1739C702.308 37.7756 701.704 38.3226 701.101 38.3226C698.521 38.3226 695.941 38.3226 693.306 38.3226C692.647 38.3226 692.153 37.7756 692.153 37.1739C692.153 35.3689 692.153 33.5091 692.153 31.7041C691.275 31.7041 690.342 31.7041 689.464 31.7041C689.464 32.4151 689.464 33.1809 689.299 33.892C689.079 34.986 688.366 35.8611 688.256 37.0098C688.201 37.6662 687.762 38.1038 687.103 38.1585C684.963 38.3226 682.822 37.9944 680.681 37.7756C680.022 37.7209 679.528 37.2833 679.528 36.6269C679.419 34.986 679.913 33.345 679.913 31.7041C678.76 31.7041 677.607 31.7041 676.509 31.7041C676.235 33.4544 675.741 35.2048 675.686 37.0098C675.686 37.6662 675.192 38.1585 674.533 38.1585C672.228 38.1585 669.922 38.2679 667.617 37.9397C667.068 37.8303 666.794 37.2833 666.739 36.791C666.629 35.0954 666.903 33.3997 666.958 31.7041C665.476 31.7041 663.994 31.7041 662.457 31.7041C662.018 33.3997 661.908 35.2595 662.073 37.0098C662.128 37.6662 661.524 38.1585 660.92 38.1585C658.834 38.2132 655.212 38.979 653.51 37.4474C651.973 36.1346 652.247 33.7279 652.467 31.7041C651.479 31.7041 650.436 31.7041 649.448 31.7041C649.174 33.2903 648.844 34.8219 648.899 36.4081C648.899 36.8457 648.515 37.4474 648.021 37.5021C645.496 37.885 643.026 37.7756 640.501 37.7209C639.842 37.7209 639.348 37.1739 639.348 36.5722C639.348 34.9313 639.238 33.2903 639.183 31.6494C637.866 31.6494 636.494 31.6494 635.176 31.6494C635.121 33.2903 634.902 34.986 634.573 36.6269C634.463 37.1192 633.914 37.5021 633.42 37.5021C631.499 37.5568 628.26 38.2679 626.668 36.791C625.515 35.6424 625.68 33.5638 625.845 31.7041C624.692 31.7041 623.539 31.7041 622.332 31.7041C621.014 31.7041 619.697 31.7041 618.38 31.7041C618.325 33.6732 618.16 35.6424 617.556 37.5021C617.392 37.9944 616.952 38.3773 616.458 38.3773C614.263 38.3226 612.067 38.0491 609.872 37.9944C609.213 37.9944 608.719 37.5021 608.719 36.8457C608.719 35.1501 608.719 33.4544 608.719 31.7588C607.401 31.7588 606.084 31.7588 604.822 31.7588C604.712 33.4544 604.492 35.1501 604.492 36.8457C604.492 37.5021 603.998 37.9944 603.339 37.9944C601.199 37.9944 599.058 37.9944 596.917 37.9944C596.259 37.9944 595.764 37.4474 595.764 36.8457C595.71 35.1501 595.27 33.4544 595.216 31.7588C593.624 31.7588 592.032 31.7588 590.495 31.7588C590.824 34.0014 591.483 36.5175 590.33 38.4867C589.672 39.5806 588.244 39.6353 587.147 39.4712C585.006 39.0884 583.03 38.5414 581.054 38.4867C580.45 38.432 579.901 37.9944 579.901 37.338C579.901 35.4236 579.901 33.5638 579.901 31.6494C578.419 31.6494 576.992 31.6494 575.51 31.6494C575.071 33.7826 574.906 35.9158 575.016 38.1038C575.071 38.8149 574.467 39.1978 573.863 39.2525C571.283 39.5259 568.758 38.5414 566.233 39.0337C565.41 39.1431 564.477 38.4867 564.806 37.6115C565.465 35.6971 565.245 33.6732 565.19 31.6494C563.928 31.6494 562.72 31.6494 561.458 31.6494C561.183 33.6185 561.348 35.6971 560.634 37.6115C560.469 38.1038 560.085 38.432 559.536 38.4867C557.45 38.4867 555.2 38.9243 553.224 38.1038C552.181 37.7209 551.687 37.1192 551.687 36.0252C551.687 34.5484 551.687 33.1262 551.687 31.6494C550.205 31.6494 548.723 31.6494 547.241 31.6494C547.405 33.6185 547.625 35.6971 546.856 37.4474C546.198 38.8149 545.374 38.6508 544.002 38.6508C542.465 38.6508 540.983 38.6508 539.446 38.6508C538.842 38.6508 538.293 38.1585 538.293 37.5021C538.293 35.533 537.909 33.6185 537.745 31.6494C536.811 31.6494 535.878 31.6494 535 31.6494V27C564.092 27 593.239 27 622.332 27C683.316 27 744.3 27 805.284 27C866.268 27 927.252 27 988.236 27C1016.12 27 1044.06 27 1071.95 27V31.6494C1070.79 31.6494 1069.64 31.6494 1068.43 31.6494C1068.38 33.4544 1068.05 35.2595 1068.16 37.1192Z" fill="#B74E42"/>
<path d="M1160.67 36.791C1159.52 35.6424 1159.68 33.5638 1159.84 31.7041H1156.33H1152.38C1152.32 33.6732 1152.16 35.6424 1151.56 37.5021C1151.39 37.9944 1150.95 38.3773 1150.46 38.3773C1148.26 38.3226 1146.07 38.0491 1143.87 37.9944C1143.21 37.9944 1142.72 37.5021 1142.72 36.8457V31.7588H1138.82C1138.71 33.4544 1138.49 35.1501 1138.49 36.8457C1138.49 37.5021 1138 37.9944 1137.34 37.9944H1130.92C1130.26 37.9944 1129.76 37.4474 1129.76 36.8457C1129.71 35.1501 1129.27 33.4544 1129.22 31.7588H1124.49C1124.82 34.0014 1125.48 36.5175 1124.33 38.4867C1123.67 39.5806 1122.24 39.6353 1121.15 39.4712C1119.01 39.0884 1117.03 38.5414 1115.05 38.4867C1114.45 38.432 1113.9 37.9944 1113.9 37.338V31.6494H1109.51C1109.07 33.7826 1108.91 35.9158 1109.02 38.1038C1109.07 38.8149 1108.47 39.1978 1107.86 39.2525C1105.28 39.5259 1102.76 38.5414 1100.23 39.0337C1099.41 39.1431 1098.48 38.4867 1098.81 37.6115C1099.46 35.6971 1099.25 33.6732 1099.19 31.6494H1095.46C1095.18 33.6185 1095.35 35.6971 1094.63 37.6115C1094.47 38.1038 1094.09 38.432 1093.54 38.4867C1091.45 38.4867 1089.2 38.9243 1087.22 38.1038C1086.18 37.7209 1085.69 37.1192 1085.69 36.0252V31.6494H1081.24C1081.41 33.6185 1081.62 35.6971 1080.86 37.4474C1080.2 38.8149 1079.37 38.6508 1078 38.6508H1073.45C1072.84 38.6508 1072.29 38.1585 1072.29 37.5021C1072.29 35.533 1071.91 33.6185 1071.74 31.6494H1069V27H1156.33H1166V37.5021C1162.8 37.5021 1160.95 37.1192 1160.67 36.791Z" fill="#B74E42"/>
<path d="M989.3 16.7378L990.233 15.972L991.057 15.3157L991.496 14.9875L991.825 14.7687C991.825 14.7687 999.62 7.16558 1000.99 6.12631L1001.54 5.68873L1002.42 5.03234C1003.08 4.54006 1003.74 4.15717 1004.56 4.32126C1005.33 4.43066 1006.1 4.86825 1006.81 5.41523L1007.25 5.74342L1007.58 6.01692L1008.24 6.5639C1009.94 8.04076 1011.48 9.57232 1012.9 10.9945C1015.76 13.8388 1018.01 15.9173 1018.06 15.8626C1019.49 17.5036 1022.34 20.1291 1022.13 20.7308L1022.02 21.059L1021.8 21.8795C1018.94 21.9889 992.264 22.5359 991.221 22.3718C990.069 22.2077 989.575 22.0436 989.575 22.0436C989.575 22.0436 989.026 21.9889 988.257 21.8248C987.489 21.6607 986.501 21.4966 985.458 21.1137C986.062 20.2932 986.72 19.4727 987.379 18.6523C987.928 17.9412 988.641 17.2301 989.3 16.7378Z" fill="#B74E42"/>
<path d="M913.641 21.77H913.037L911.94 21.8247C909.744 21.9341 908.207 22.1529 906.56 22.4264C905.627 22.5358 905.298 22.6999 904.749 22.8093C904.255 22.9187 903.761 23.0828 903.212 23.1921C902.498 23.3562 896.021 23.3562 893.551 23.3015C883.945 23.0828 874.998 22.5905 874.998 22.5905C871.375 22.2076 868.96 21.8247 868.905 21.8247C868.685 21.8247 868.521 21.7153 868.411 21.4965C868.301 21.3324 868.301 21.1136 868.301 20.9495C868.191 20.9495 868.082 20.9495 868.027 20.9495L868.301 20.6213C868.246 20.5666 868.191 20.5666 868.136 20.5119C867.972 20.3478 867.862 20.1837 867.862 20.0196C867.807 19.8555 867.862 19.6914 867.972 19.582C868.576 19.1445 875.327 12.7447 883.177 5.85274C885.153 4.15708 887.074 2.40673 889.434 0.765778C889.599 0.656382 889.764 0.546985 889.928 0.437588C890.038 0.382889 890.148 0.328191 890.312 0.273492C890.532 0.109397 890.587 0 891.355 0C891.41 0 891.355 0 891.575 0.0546985C891.74 0.0546985 891.959 0.164095 892.014 0.164095C892.179 0.218794 892.289 0.273492 892.398 0.328191C892.618 0.437588 892.783 0.546985 892.947 0.656382C893.551 1.09397 894.1 1.47686 894.594 1.85975C895.637 2.68022 896.57 3.5007 897.503 4.26648C901.126 7.43899 904.145 10.2286 905.956 11.8696C906.396 12.2525 906.835 12.7994 907.384 13.4011L909.14 15.5891C911.171 17.9958 912.818 20.0743 914.19 21.6059C914.135 21.77 913.861 21.7153 913.641 21.77Z" fill="#B74E42"/>
<path d="M850.734 21.9342C847.879 22.0436 821.202 22.5905 820.159 22.4265C819.007 22.2624 818.513 22.0983 818.513 22.0983C818.513 22.0983 817.964 22.0436 817.195 21.8795C816.427 21.7154 815.439 21.5513 814.396 21.1684C815 20.3479 815.658 19.5274 816.317 18.707C816.976 17.9412 817.689 17.1754 818.348 16.6831L819.281 15.9173L820.05 15.261L820.489 14.9328L820.818 14.714C820.818 14.714 828.613 7.11089 829.985 6.07162L830.534 5.63403L831.412 5.03234C832.071 4.54006 832.729 4.15717 833.553 4.32126C834.321 4.43066 835.09 4.86825 835.803 5.41523L836.243 5.74342L836.572 6.01692L837.231 6.5639C838.932 8.04076 840.469 9.57232 841.896 10.9945C844.751 13.8388 847.001 15.9173 847.001 15.8626C848.428 17.5036 851.283 20.1291 851.063 20.7308L850.953 21.059L850.734 21.9342Z" fill="#B74E42"/>
<path d="M961.124 14.7683L961.673 15.37C962.277 16.0264 962.826 16.6828 963.43 17.3939C964.582 18.816 965.186 20.0741 965.845 21.1681C965.79 21.3322 967.162 23.0825 966.888 23.1372L935.545 23.0278C933.953 22.809 932.745 22.5902 931.922 22.4261L930.879 22.262L930.715 21.5509C930.44 20.457 930.879 19.8006 930.879 19.8006C930.989 19.5271 931.209 19.4177 931.428 19.4177C931.648 19.4177 931.867 19.5271 932.032 19.6912C932.087 19.7459 932.142 19.8006 932.197 19.8553C932.142 19.8006 932.087 19.7459 932.087 19.6912C931.977 19.5271 931.922 19.3083 931.867 19.1442C931.867 18.9801 931.867 18.8707 931.977 18.816C932.197 18.7613 933.679 17.7221 935.71 15.917C937.741 14.112 940.266 11.5411 943.065 8.80621C943.779 8.14982 944.492 7.43875 945.261 6.78236C945.48 6.61827 945.59 6.50887 945.919 6.23538C946.194 6.01658 946.523 5.79779 946.852 5.6337C947.511 5.3055 948.225 4.97731 948.938 5.25081C949.597 5.4696 950.201 6.01658 950.805 6.39947L951.957 7.27465L954.098 8.9703C956.898 11.2129 959.203 13.1821 960.63 14.3308C960.85 14.4948 960.96 14.6042 961.124 14.7683Z" fill="#B74E42"/>
<path d="M739.085 21.77L738.042 21.8247C735.847 21.9341 734.31 22.1529 732.663 22.4264C731.73 22.5358 731.401 22.6999 730.852 22.8093C730.358 22.9187 729.864 23.0828 729.315 23.1921C728.601 23.3562 722.124 23.3562 719.654 23.3015C710.048 23.0828 701.101 22.5905 701.101 22.5905C697.478 22.2076 695.063 21.8247 695.008 21.8247C694.788 21.8247 694.623 21.7153 694.514 21.4965C694.404 21.3324 694.404 21.1136 694.404 20.9495C694.294 20.9495 694.184 20.9495 694.129 20.9495L694.404 20.6213C694.349 20.5666 694.294 20.5666 694.239 20.5119C694.075 20.3478 693.965 20.1837 693.965 20.0196C693.91 19.8555 693.965 19.6914 694.075 19.582C694.678 19.1445 701.43 12.7447 709.279 5.85274C711.255 4.15708 713.177 2.40673 715.537 0.765778C715.702 0.656382 715.866 0.546985 716.031 0.437588C716.141 0.382889 716.251 0.328191 716.36 0.273492C716.58 0.109397 716.635 0 717.403 0C717.458 0 717.403 0 717.623 0.0546985C717.788 0.0546985 718.007 0.164095 718.062 0.164095C718.227 0.218794 718.336 0.273492 718.446 0.328191C718.666 0.437588 718.83 0.546985 718.995 0.656382C719.599 1.09397 720.148 1.47686 720.642 1.85975C721.685 2.68022 722.618 3.5007 723.551 4.26648C727.174 7.43899 730.193 10.2286 732.004 11.8696C732.443 12.2525 732.883 12.7994 733.431 13.4011L735.188 15.5891C737.219 17.9958 738.866 20.0743 740.238 21.6059C740.238 21.6606 739.909 21.6606 739.744 21.6606L739.085 21.77Z" fill="#B74E42"/>
<path d="M667.727 21.9342C664.872 22.0436 638.195 22.5905 637.152 22.4265C636 22.2624 635.506 22.0983 635.506 22.0983C635.506 22.0983 634.957 22.0436 634.188 21.8795C633.42 21.7154 632.432 21.5513 631.389 21.1684C631.993 20.3479 632.651 19.5274 633.31 18.707C633.969 17.9412 634.682 17.1754 635.341 16.6831L636.274 15.9173L637.097 15.3157L637.537 14.9875L637.866 14.7687C637.866 14.7687 645.66 7.16558 647.033 6.12631L647.582 5.68873L648.46 5.03234C649.119 4.54006 649.777 4.15717 650.601 4.32126C651.369 4.43066 652.138 4.86825 652.851 5.41523L653.29 5.74342L653.62 6.01692L654.278 6.5639C655.98 8.04076 657.517 9.57232 658.944 10.9945C661.798 13.8388 664.049 15.9173 664.104 15.8626C665.531 17.5036 668.385 20.1291 668.166 20.7308L668.056 21.059L667.727 21.9342Z" fill="#B74E42"/>
<path d="M766.97 22.4808L765.927 22.262L765.762 21.5509C765.488 20.457 765.982 19.8006 765.927 19.8006C766.037 19.5271 766.256 19.4177 766.476 19.4177C766.695 19.4177 766.915 19.5271 767.08 19.6912C767.135 19.7459 767.189 19.8006 767.244 19.8553C767.244 19.8006 767.189 19.7459 767.189 19.6912C767.08 19.5271 767.025 19.3083 766.97 19.1442C766.97 18.9801 766.97 18.8707 767.08 18.816C767.299 18.7613 768.781 17.7221 770.812 15.917C772.843 14.112 775.368 11.5411 778.168 8.80621C778.881 8.14982 779.595 7.43875 780.363 6.78236C780.583 6.61827 780.693 6.50887 781.022 6.23538C781.351 6.01658 781.626 5.79779 781.955 5.6337C782.614 5.3055 783.327 4.97731 783.986 5.25081C784.645 5.4696 785.249 5.96189 785.852 6.39947L787.005 7.27465L789.201 8.9703C792 11.2129 794.306 13.1821 795.733 14.3308C795.843 14.4401 796.007 14.6042 796.172 14.7683L796.721 15.37C797.325 16.0264 797.929 16.6828 798.477 17.3939C799.63 18.816 800.234 20.0741 800.893 21.1681C800.838 21.3322 802.265 23.0825 801.936 23.1372L770.593 23.0278C769.001 22.8637 767.738 22.6449 766.97 22.4808Z" fill="#B74E42"/>
<path d="M583.963 22.4808L582.975 22.262L582.81 21.5509C582.591 20.457 583.03 19.8006 582.975 19.8006C583.085 19.5271 583.304 19.4177 583.524 19.4177C583.743 19.4177 583.963 19.5271 584.128 19.6912C584.182 19.7459 584.237 19.8006 584.292 19.8553C584.292 19.8006 584.237 19.7459 584.237 19.6912C584.128 19.5271 584.018 19.3083 584.018 19.1442C584.018 18.9801 584.018 18.8707 584.128 18.816C584.347 18.7613 585.829 17.7221 587.86 15.917C589.891 14.112 592.416 11.5411 595.216 8.80621C595.929 8.14982 596.643 7.43875 597.411 6.78236C597.631 6.61827 597.741 6.50887 598.07 6.23538C598.399 6.01658 598.674 5.79779 599.003 5.6337C599.607 5.3055 600.375 4.97731 601.034 5.25081C601.693 5.4696 602.297 6.01658 602.9 6.39947L604.053 7.27465L606.249 8.9703C609.048 11.2129 611.354 13.1821 612.781 14.3308C612.89 14.4401 613.055 14.6042 613.22 14.7683L613.769 15.37C614.373 16.0264 614.976 16.6828 615.525 17.3939C616.678 18.816 617.227 20.0741 617.94 21.1681C617.886 21.3322 619.313 23.0825 618.983 23.1372L587.641 23.0278C586.049 22.8637 584.786 22.6449 583.963 22.4808Z" fill="#B74E42"/>
<path d="M522.215 21.3319L521.227 21.1131L521.062 20.402C520.842 19.3081 521.281 18.6517 521.227 18.6517C521.336 18.3782 521.556 18.2688 521.776 18.2688C521.995 18.2688 522.215 18.3782 522.379 18.5423C522.434 18.597 522.489 18.6517 522.544 18.7064C522.544 18.6517 522.489 18.597 522.489 18.5423C522.379 18.3782 522.27 18.1594 522.27 17.9953C522.27 17.8312 522.27 17.7218 522.379 17.6671C522.599 17.6124 524.081 16.5731 526.112 14.7681C528.143 12.963 530.668 10.3922 533.467 7.65728C534.181 7.0009 534.894 6.28982 535.663 5.63344C535.883 5.46934 535.992 5.35995 536.322 5.08645C536.651 4.86766 536.925 4.64887 537.255 4.48477C537.859 4.15658 538.627 3.82839 539.286 4.10188C539.944 4.32067 540.548 4.86766 541.152 5.25055L542.305 6.12572L544.5 7.82138C547.3 10.064 549.605 12.0332 551.032 13.1818C551.142 13.2912 551.307 13.4553 551.472 13.6194L552.021 14.2211C552.624 14.8775 553.228 15.5339 553.777 16.2449C554.93 17.6671 555.479 18.9252 556.192 20.0191C556.137 20.1832 557.565 21.9336 557.235 21.9883L525.892 21.8789C524.301 21.7148 523.038 21.496 522.215 21.3319Z" fill="#B74E42"/>
<path d="M1074.34 21.6515C1071.48 21.7608 1044.81 22.3078 1043.76 22.1437C1042.61 21.9796 1042.12 21.8155 1042.12 21.8155C1042.12 21.8155 1041.57 21.7608 1040.8 21.5968C1040.03 21.4327 1039.04 21.2686 1038 20.8857C1038.6 20.0652 1039.26 19.2447 1039.92 18.4242C1040.58 17.6585 1041.29 16.8927 1041.95 16.4004L1042.89 15.6346L1043.71 15.0329L1044.15 14.7047L1044.48 14.486C1044.48 14.486 1052.27 6.88287 1053.64 5.8436L1054.19 5.40601L1055.07 4.74963C1055.73 4.25734 1056.39 3.87445 1057.21 4.03855C1057.98 4.14795 1058.75 4.58553 1059.46 5.13252L1059.9 5.46071L1060.23 5.7342L1060.89 6.28119C1062.59 7.75804 1064.13 9.2896 1065.56 10.7118C1068.41 13.5561 1070.66 15.6346 1070.72 15.5799C1072.14 17.2209 1075 19.8464 1074.78 20.4481L1074.67 20.7763L1074.34 21.6515Z" fill="#B74E42"/>
<path d="M1128.34 22.6515C1125.48 22.7608 1098.81 23.3078 1097.76 23.1437C1096.61 22.9796 1096.12 22.8155 1096.12 22.8155C1096.12 22.8155 1095.57 22.7608 1094.8 22.5968C1094.03 22.4327 1093.04 22.2686 1092 21.8857C1092.6 21.0652 1093.26 20.2447 1093.92 19.4242C1094.58 18.6585 1095.29 17.8927 1095.95 17.4004L1096.89 16.6346L1097.71 16.0329L1098.15 15.7047L1098.48 15.486C1098.48 15.486 1106.27 7.88287 1107.64 6.8436L1108.19 6.40601L1109.07 5.74963C1109.73 5.25734 1110.39 4.87445 1111.21 5.03855C1111.98 5.14795 1112.75 5.58553 1113.46 6.13252L1113.9 6.46071L1114.23 6.7342L1114.89 7.28119C1116.59 8.75804 1118.13 10.2896 1119.56 11.7118C1122.41 14.5561 1124.66 16.6346 1124.72 16.5799C1126.14 18.2209 1129 20.8464 1128.78 21.4481L1128.67 21.7763L1128.34 22.6515Z" fill="#B74E42"/>
</svg>
