<svg width="327" height="56" viewBox="0 0 327 56" fill="none" xmlns="http://www.w3.org/2000/svg">
<rect width="327" height="56" rx="8" fill="#F6C35D"/>
<g clip-path="url(#clip0)">
<path fill-rule="evenodd" clip-rule="evenodd" d="M133.025 28.9591V28.9207C133.025 25.147 135.958 21.9511 140.086 21.9511C142.14 21.9511 143.508 22.432 144.76 23.3178C144.912 23.4286 145.035 23.5734 145.12 23.7406C145.205 23.9078 145.249 24.0927 145.25 24.2803C145.25 24.9161 144.722 25.4553 144.056 25.4553C143.743 25.4553 143.509 25.3203 143.313 25.1853C142.433 24.5503 141.475 24.1261 139.988 24.1261C137.465 24.1261 135.548 26.3024 135.548 28.882V28.9207C135.548 31.6932 137.406 33.7341 140.203 33.7341C141.494 33.7341 142.668 33.3299 143.509 32.7136V30.1916H140.81C140.223 30.1916 139.734 29.7491 139.734 29.1716C139.734 28.5936 140.223 28.1316 140.81 28.1316H144.624C145.308 28.1316 145.836 28.6516 145.836 29.3257V32.9257C145.836 33.5995 145.563 34.0811 144.995 34.4274C143.822 35.1978 142.179 35.8907 140.125 35.8907C135.841 35.8903 133.025 32.8874 133.025 28.9591ZM147.993 22.6632C147.993 22.0278 148.502 21.5078 149.166 21.5078C149.832 21.5078 150.36 22.0278 150.36 22.6632V34.6007C150.36 35.2553 149.831 35.7557 149.166 35.7557C148.521 35.7557 147.993 35.2557 147.993 34.6003V22.6628V22.6632ZM152.193 30.6345V30.5953C152.193 27.6882 154.54 25.2816 157.708 25.2816C160.877 25.2816 163.205 27.6499 163.205 30.5574V30.5953C163.205 33.4841 160.858 35.8907 157.669 35.8907C154.52 35.8907 152.193 33.5224 152.193 30.6345ZM160.838 30.6345V30.5953C160.838 28.8053 159.527 27.3228 157.669 27.3228C155.772 27.3228 154.559 28.7861 154.559 30.5574V30.5953C154.559 32.367 155.87 33.8495 157.708 33.8495C159.625 33.8495 160.838 32.3861 160.838 30.6345H160.838ZM169.113 35.852H168.996C168.351 35.852 167.92 35.4478 167.647 34.8311L164.205 27.072C164.146 26.8986 164.068 26.707 164.068 26.4945C164.068 25.917 164.595 25.3778 165.241 25.3778C165.886 25.3778 166.218 25.7436 166.414 26.2253L169.074 32.9636L171.773 26.187C171.95 25.7824 172.262 25.3778 172.888 25.3778C173.534 25.3778 174.042 25.8595 174.042 26.4945C174.042 26.707 173.964 26.9378 173.906 27.0528L170.463 34.8316C170.188 35.4282 169.759 35.8524 169.113 35.8524V35.852ZM174.905 30.6345V30.5953C174.905 27.6882 177.252 25.2816 180.422 25.2816C183.589 25.2816 185.917 27.6499 185.917 30.5574V30.5953C185.917 33.4841 183.57 35.8907 180.382 35.8907C177.233 35.8907 174.905 33.5224 174.905 30.6345ZM183.551 30.6345V30.5953C183.551 28.8053 182.24 27.3228 180.382 27.3228C178.485 27.3228 177.272 28.7861 177.272 30.5574V30.5953C177.272 32.367 178.582 33.8495 180.421 33.8495C182.338 33.8495 183.55 32.3861 183.55 30.6345H183.551Z" fill="#00A082"/>
<path fill-rule="evenodd" clip-rule="evenodd" d="M189.875 16.0529C187.312 16.0529 185.228 18.1058 185.228 20.6279C185.228 21.5887 185.531 22.5112 186.104 23.2954L186.228 23.4641L188.647 26.8254C188.647 26.8254 188.942 27.3004 189.586 27.3004H190.164C190.808 27.3004 191.102 26.8254 191.102 26.8254L193.522 23.4641L193.645 23.2954C194.214 22.5227 194.522 21.5879 194.522 20.6279C194.522 18.1058 192.437 16.0529 189.875 16.0529ZM191.787 21.9787L191.658 22.1562L189.875 24.6341L188.094 22.1612L187.963 21.9816C187.673 21.5898 187.517 21.1153 187.516 20.6279C187.516 19.3474 188.574 18.3058 189.874 18.3058C191.175 18.3058 192.233 19.3474 192.233 20.6279C192.233 21.1133 192.079 21.5804 191.787 21.9787ZM188.568 29.3641V29.3549C188.568 28.6716 189.119 28.1054 189.863 28.1054C190.609 28.1054 191.155 28.662 191.155 29.3458V29.3549C191.155 30.0333 190.604 30.5991 189.855 30.5991C189.115 30.5991 188.567 30.0429 188.567 29.3641H188.568Z" fill="#00A082"/>
</g>
<defs>
<clipPath id="clip0">
<rect width="61.6667" height="20" fill="white" transform="translate(133 16)"/>
</clipPath>
</defs>
</svg>
