<svg width="24" height="24" viewBox="0 0 24 24" fill="none" xmlns="http://www.w3.org/2000/svg">
<path d="M12 0C14.0197 0 15.6686 0.0236686 16.9467 0.0710059C18.0355 0.118343 19.0059 0.307692 19.858 0.639053C20.6785 0.954635 21.3886 1.41223 21.9882 2.01183C22.5878 2.61144 23.0454 3.3215 23.3609 4.14201C23.6923 4.99408 23.8817 5.9645 23.929 7.05325C23.9763 8.33136 24 9.98028 24 12C24 14.0197 23.9763 15.6686 23.929 16.9467C23.8817 18.0355 23.6923 19.0059 23.3609 19.858C23.0454 20.6785 22.5878 21.3886 21.9882 21.9882C21.3886 22.5878 20.6785 23.0454 19.858 23.3609C19.0059 23.6923 18.0355 23.8817 16.9467 23.929C15.6686 23.9763 14.0197 24 12 24C9.98028 24 8.33136 23.9763 7.05325 23.929C5.9645 23.8817 4.99408 23.6923 4.14201 23.3609C3.3215 23.0454 2.61144 22.5878 2.01183 21.9882C1.41223 21.3886 0.954635 20.6785 0.639053 19.858C0.307692 19.0059 0.118343 18.0355 0.0710059 16.9467C0.0236686 15.6686 0 14.0197 0 12C0 9.98028 0.0236686 8.33136 0.0710059 7.05325C0.118343 5.9645 0.307692 4.99408 0.639053 4.14201C0.954635 3.3215 1.41223 2.61144 2.01183 2.01183C2.61144 1.41223 3.3215 0.954635 4.14201 0.639053C4.99408 0.307692 5.9645 0.118343 7.05325 0.0710059C8.33136 0.0236686 9.98028 0 12 0ZM12 1.56213C9.90138 1.56213 8.18935 1.5858 6.86391 1.63314C6.01183 1.66469 5.22288 1.8146 4.49704 2.08284C3.36095 2.55621 2.55621 3.36095 2.08284 4.49704C1.8146 5.22288 1.66469 6.01183 1.63314 6.86391C1.5858 8.18935 1.56213 9.90138 1.56213 12C1.56213 14.0986 1.5858 15.8107 1.63314 17.1361C1.66469 17.9882 1.8146 18.7771 2.08284 19.503C2.55621 20.6391 3.36095 21.4438 4.49704 21.9172C5.22288 22.1854 6.01183 22.3353 6.86391 22.3669C8.18935 22.4142 9.90138 22.4379 12 22.4379C14.0986 22.4379 15.8107 22.4142 17.1361 22.3669C17.9882 22.3353 18.7771 22.1854 19.503 21.9172C20.6391 21.4438 21.4438 20.6391 21.9172 19.503C22.1854 18.7771 22.3353 17.9882 22.3669 17.1361C22.4142 15.8107 22.4379 14.0986 22.4379 12C22.4379 9.90138 22.4142 8.18935 22.3669 6.86391C22.3353 6.01183 22.1854 5.22288 21.9172 4.49704C21.4438 3.36095 20.6391 2.55621 19.503 2.08284C18.7771 1.8146 17.9882 1.66469 17.1361 1.63314C15.8107 1.5858 14.0986 1.56213 12 1.56213ZM12 16.8047C13.3254 16.8047 14.4576 16.3353 15.3965 15.3965C16.3353 14.4576 16.8047 13.3254 16.8047 12C16.8047 10.6746 16.3353 9.54241 15.3965 8.60355C14.4576 7.66469 13.3254 7.19527 12 7.19527C10.6746 7.19527 9.54241 7.66469 8.60355 8.60355C7.66469 9.54241 7.19527 10.6746 7.19527 12C7.19527 13.3254 7.66469 14.4576 8.60355 15.3965C9.54241 16.3353 10.6746 16.8047 12 16.8047ZM12 5.84615C13.7041 5.84615 15.1558 6.44576 16.355 7.64497C17.5542 8.84418 18.1538 10.2959 18.1538 12C18.1538 13.7041 17.5542 15.1558 16.355 16.355C15.1558 17.5542 13.7041 18.1538 12 18.1538C10.2959 18.1538 8.84418 17.5542 7.64497 16.355C6.44576 15.1558 5.84615 13.7041 5.84615 12C5.84615 10.2959 6.44576 8.84418 7.64497 7.64497C8.84418 6.44576 10.2959 5.84615 12 5.84615ZM19.858 5.60947C19.858 6.00394 19.716 6.33925 19.432 6.61538C19.1479 6.89152 18.8008 7.02959 18.3905 7.02959C17.9961 7.02959 17.6607 6.89152 17.3846 6.61538C17.1085 6.33925 16.9704 6.00394 16.9704 5.60947C16.9704 5.19921 17.1085 4.85207 17.3846 4.56805C17.6607 4.28402 17.9961 4.14201 18.3905 4.14201C18.785 4.14201 19.1282 4.28797 19.4201 4.57988C19.712 4.87179 19.858 5.21499 19.858 5.60947Z" fill="#473232"/>
<path d="M12 0C14.0197 0 15.6686 0.0236686 16.9467 0.0710059C18.0355 0.118343 19.0059 0.307692 19.858 0.639053C20.6785 0.954635 21.3886 1.41223 21.9882 2.01183C22.5878 2.61144 23.0454 3.3215 23.3609 4.14201C23.6923 4.99408 23.8817 5.9645 23.929 7.05325C23.9763 8.33136 24 9.98028 24 12C24 14.0197 23.9763 15.6686 23.929 16.9467C23.8817 18.0355 23.6923 19.0059 23.3609 19.858C23.0454 20.6785 22.5878 21.3886 21.9882 21.9882C21.3886 22.5878 20.6785 23.0454 19.858 23.3609C19.0059 23.6923 18.0355 23.8817 16.9467 23.929C15.6686 23.9763 14.0197 24 12 24C9.98028 24 8.33136 23.9763 7.05325 23.929C5.9645 23.8817 4.99408 23.6923 4.14201 23.3609C3.3215 23.0454 2.61144 22.5878 2.01183 21.9882C1.41223 21.3886 0.954635 20.6785 0.639053 19.858C0.307692 19.0059 0.118343 18.0355 0.0710059 16.9467C0.0236686 15.6686 0 14.0197 0 12C0 9.98028 0.0236686 8.33136 0.0710059 7.05325C0.118343 5.9645 0.307692 4.99408 0.639053 4.14201C0.954635 3.3215 1.41223 2.61144 2.01183 2.01183C2.61144 1.41223 3.3215 0.954635 4.14201 0.639053C4.99408 0.307692 5.9645 0.118343 7.05325 0.0710059C8.33136 0.0236686 9.98028 0 12 0ZM12 1.56213C9.90138 1.56213 8.18935 1.5858 6.86391 1.63314C6.01183 1.66469 5.22288 1.8146 4.49704 2.08284C3.36095 2.55621 2.55621 3.36095 2.08284 4.49704C1.8146 5.22288 1.66469 6.01183 1.63314 6.86391C1.5858 8.18935 1.56213 9.90138 1.56213 12C1.56213 14.0986 1.5858 15.8107 1.63314 17.1361C1.66469 17.9882 1.8146 18.7771 2.08284 19.503C2.55621 20.6391 3.36095 21.4438 4.49704 21.9172C5.22288 22.1854 6.01183 22.3353 6.86391 22.3669C8.18935 22.4142 9.90138 22.4379 12 22.4379C14.0986 22.4379 15.8107 22.4142 17.1361 22.3669C17.9882 22.3353 18.7771 22.1854 19.503 21.9172C20.6391 21.4438 21.4438 20.6391 21.9172 19.503C22.1854 18.7771 22.3353 17.9882 22.3669 17.1361C22.4142 15.8107 22.4379 14.0986 22.4379 12C22.4379 9.90138 22.4142 8.18935 22.3669 6.86391C22.3353 6.01183 22.1854 5.22288 21.9172 4.49704C21.4438 3.36095 20.6391 2.55621 19.503 2.08284C18.7771 1.8146 17.9882 1.66469 17.1361 1.63314C15.8107 1.5858 14.0986 1.56213 12 1.56213ZM12 16.8047C13.3254 16.8047 14.4576 16.3353 15.3965 15.3965C16.3353 14.4576 16.8047 13.3254 16.8047 12C16.8047 10.6746 16.3353 9.54241 15.3965 8.60355C14.4576 7.66469 13.3254 7.19527 12 7.19527C10.6746 7.19527 9.54241 7.66469 8.60355 8.60355C7.66469 9.54241 7.19527 10.6746 7.19527 12C7.19527 13.3254 7.66469 14.4576 8.60355 15.3965C9.54241 16.3353 10.6746 16.8047 12 16.8047ZM12 5.84615C13.7041 5.84615 15.1558 6.44576 16.355 7.64497C17.5542 8.84418 18.1538 10.2959 18.1538 12C18.1538 13.7041 17.5542 15.1558 16.355 16.355C15.1558 17.5542 13.7041 18.1538 12 18.1538C10.2959 18.1538 8.84418 17.5542 7.64497 16.355C6.44576 15.1558 5.84615 13.7041 5.84615 12C5.84615 10.2959 6.44576 8.84418 7.64497 7.64497C8.84418 6.44576 10.2959 5.84615 12 5.84615ZM19.858 5.60947C19.858 6.00394 19.716 6.33925 19.432 6.61538C19.1479 6.89152 18.8008 7.02959 18.3905 7.02959C17.9961 7.02959 17.6607 6.89152 17.3846 6.61538C17.1085 6.33925 16.9704 6.00394 16.9704 5.60947C16.9704 5.19921 17.1085 4.85207 17.3846 4.56805C17.6607 4.28402 17.9961 4.14201 18.3905 4.14201C18.785 4.14201 19.1282 4.28797 19.4201 4.57988C19.712 4.87179 19.858 5.21499 19.858 5.60947Z" fill="#473232"/>
</svg>
