<svg width="107" height="32" viewBox="0 0 107 32" fill="none" xmlns="http://www.w3.org/2000/svg">
<path d="M10.1093 0.751999C12.1813 0.751999 13.8613 0.947999 15.1493 1.34C16.4653 1.732 17.4873 2.32 18.2153 3.104C18.9433 3.888 19.4333 4.882 19.6853 6.086C19.9373 7.262 20.0633 8.648 20.0633 10.244V22.886C20.0633 24.482 19.8953 25.854 19.5593 27.002C19.2233 28.15 18.6633 29.102 17.8793 29.858C17.1233 30.586 16.1013 31.132 14.8133 31.496C13.5533 31.832 11.9853 32 10.1093 32C8.20528 32 6.60928 31.818 5.32128 31.454C4.03328 31.09 2.99728 30.544 2.21328 29.816C1.45728 29.06 0.911281 28.108 0.575281 26.96C0.267281 25.812 0.113281 24.454 0.113281 22.886V10.244C0.113281 8.676 0.281281 7.304 0.617281 6.128C0.953281 4.952 1.51328 3.972 2.29728 3.188C3.08128 2.376 4.10328 1.774 5.36328 1.382C6.65128 0.961999 8.23328 0.751999 10.1093 0.751999ZM14.8133 14.066C14.8133 13.478 14.7573 12.974 14.6453 12.554C14.5333 12.134 14.3233 11.784 14.0153 11.504C13.7073 11.224 13.2733 11.014 12.7133 10.874C12.1813 10.734 11.4813 10.664 10.6133 10.664C9.01728 10.664 7.92528 10.944 7.33728 11.504C6.74928 12.064 6.45528 12.918 6.45528 14.066V18.56C6.45528 19.68 6.74928 20.506 7.33728 21.038C7.92528 21.542 9.01728 21.794 10.6133 21.794C12.2093 21.794 13.3013 21.542 13.8893 21.038C14.5053 20.534 14.8133 19.708 14.8133 18.56V14.066ZM33.2677 23.054C33.0997 22.858 32.9037 22.76 32.6797 22.76H29.3617V30.446H22.1797V0.751999H31.8817C33.8137 0.751999 35.3817 0.877999 36.5857 1.13C37.7897 1.354 38.7277 1.704 39.3997 2.18C40.0717 2.628 40.5197 3.202 40.7437 3.902C40.9957 4.602 41.1217 5.428 41.1217 6.38V13.856C41.1217 14.668 40.9817 15.326 40.7017 15.83C40.4217 16.334 40.0577 16.74 39.6097 17.048C39.1897 17.356 38.7137 17.594 38.1817 17.762C37.6497 17.93 37.1457 18.084 36.6697 18.224C37.1457 18.532 37.6357 18.826 38.1397 19.106C38.6437 19.358 39.0917 19.694 39.4837 20.114C39.9037 20.534 40.2397 21.08 40.4917 21.752C40.7717 22.396 40.9117 23.236 40.9117 24.272L40.7857 32H33.6037L33.6877 24.188C33.6877 23.684 33.5477 23.306 33.2677 23.054ZM29.3617 14.15C29.6977 14.262 30.1737 14.318 30.7897 14.318C31.8257 14.318 32.5397 14.15 32.9317 13.814C33.3237 13.45 33.5197 12.862 33.5197 12.05V8.942C33.5197 8.13 33.3517 7.542 33.0157 7.178C32.6797 6.786 31.9377 6.59 30.7897 6.59C30.1737 6.59 29.6977 6.646 29.3617 6.758V14.15ZM55.3167 0.751999C57.2207 0.751999 58.8167 0.961999 60.1047 1.382C61.3927 1.774 62.4287 2.376 63.2127 3.188C64.0247 3.972 64.5987 4.952 64.9347 6.128C65.2707 7.304 65.4387 8.676 65.4387 10.244V22.886C65.4387 24.454 65.2707 25.812 64.9347 26.96C64.5987 28.108 64.0387 29.06 63.2547 29.816C62.4707 30.544 61.4347 31.09 60.1467 31.454C58.8587 31.818 57.2487 32 55.3167 32H43.2207V0.751999H55.3167ZM57.2067 14.612C57.2067 13.912 57.1507 13.31 57.0387 12.806C56.9547 12.274 56.7727 11.84 56.4927 11.504C56.2127 11.168 55.8207 10.916 55.3167 10.748C54.8127 10.58 54.1687 10.496 53.3847 10.496C52.6007 10.496 51.9427 10.608 51.4107 10.832V23.768C51.9147 23.936 52.5727 24.02 53.3847 24.02C54.8127 24.02 55.8067 23.712 56.3667 23.096C56.9267 22.48 57.2067 21.472 57.2067 20.072V14.612ZM67.543 32V0.751999H85.729V9.53H74.725V13.394H83.755V19.652H74.725V23.222H85.729V32H67.627H67.543ZM98.9337 23.054C98.7657 22.858 98.5697 22.76 98.3457 22.76H95.0277V30.446H87.8457V0.751999H97.5477C99.4797 0.751999 101.048 0.877999 102.252 1.13C103.456 1.354 104.394 1.704 105.066 2.18C105.738 2.628 106.186 3.202 106.41 3.902C106.662 4.602 106.788 5.428 106.788 6.38V13.856C106.788 14.668 106.648 15.326 106.368 15.83C106.088 16.334 105.724 16.74 105.276 17.048C104.856 17.356 104.38 17.594 103.848 17.762C103.316 17.93 102.812 18.084 102.336 18.224C102.812 18.532 103.302 18.826 103.806 19.106C104.31 19.358 104.758 19.694 105.15 20.114C105.57 20.534 105.906 21.08 106.158 21.752C106.438 22.396 106.578 23.236 106.578 24.272L106.452 32H99.2697L99.3537 24.188C99.3537 23.684 99.2137 23.306 98.9337 23.054ZM95.0277 14.15C95.3637 14.262 95.8397 14.318 96.4557 14.318C97.4917 14.318 98.2057 14.15 98.5977 13.814C98.9897 13.45 99.1857 12.862 99.1857 12.05V8.942C99.1857 8.13 99.0177 7.542 98.6817 7.178C98.3457 6.786 97.6037 6.59 96.4557 6.59C95.8397 6.59 95.3637 6.646 95.0277 6.758V14.15Z" fill="#D3212D"/>
</svg>
