<svg width="24" height="24" viewBox="0 0 24 24" fill="none" xmlns="http://www.w3.org/2000/svg">
<path fill-rule="evenodd" clip-rule="evenodd" d="M16.9467 0.0710059C15.6686 0.0236686 14.0197 0 12 0C9.98028 0 8.33136 0.0236686 7.05325 0.0710059C5.9645 0.118343 4.99408 0.307692 4.14201 0.639053C3.3215 0.954635 2.61144 1.41223 2.01183 2.01183C1.41223 2.61144 0.954635 3.3215 0.639053 4.14201C0.307692 4.99408 0.118343 5.9645 0.0710059 7.05325C0.0236686 8.33136 0 9.98028 0 12C0 14.0197 0.0236686 15.6686 0.0710059 16.9467C0.118343 18.0355 0.307692 19.0059 0.639053 19.858C0.954635 20.6785 1.41223 21.3886 2.01183 21.9882C2.61144 22.5878 3.3215 23.0454 4.14201 23.3609C4.99408 23.6923 5.9645 23.8817 7.05325 23.929C8.33136 23.9763 9.98028 24 12 24C14.0197 24 15.6686 23.9763 16.9467 23.929C18.0355 23.8817 19.0059 23.6923 19.858 23.3609C20.6785 23.0454 21.3886 22.5878 21.9882 21.9882C22.5878 21.3886 23.0454 20.6785 23.3609 19.858C23.6923 19.0059 23.8817 18.0355 23.929 16.9467C23.9763 15.6686 24 14.0197 24 12C24 9.98028 23.9763 8.33136 23.929 7.05325C23.8817 5.9645 23.6923 4.99408 23.3609 4.14201C23.0454 3.3215 22.5878 2.61144 21.9882 2.01183C21.3886 1.41223 20.6785 0.954635 19.858 0.639053C19.0059 0.307692 18.0355 0.118343 16.9467 0.0710059ZM6.86391 1.63314C8.18935 1.5858 9.90138 1.56213 12 1.56213C14.0986 1.56213 15.8107 1.5858 17.1361 1.63314C17.9882 1.66469 18.7771 1.8146 19.503 2.08284C20.6391 2.55621 21.4438 3.36095 21.9172 4.49704C22.1854 5.22288 22.3353 6.01183 22.3669 6.86391C22.4142 8.18935 22.4379 9.90138 22.4379 12C22.4379 14.0986 22.4142 15.8107 22.3669 17.1361C22.3353 17.9882 22.1854 18.7771 21.9172 19.503C21.4438 20.6391 20.6391 21.4438 19.503 21.9172C18.7771 22.1854 17.9882 22.3353 17.1361 22.3669C15.8107 22.4142 14.0986 22.4379 12 22.4379C9.90138 22.4379 8.18935 22.4142 6.86391 22.3669C6.01183 22.3353 5.22288 22.1854 4.49704 21.9172C3.36095 21.4438 2.55621 20.6391 2.08284 19.503C1.8146 18.7771 1.66469 17.9882 1.63314 17.1361C1.5858 15.8107 1.56213 14.0986 1.56213 12C1.56213 9.90138 1.5858 8.18935 1.63314 6.86391C1.66469 6.01183 1.8146 5.22288 2.08284 4.49704C2.55621 3.36095 3.36095 2.55621 4.49704 2.08284C5.22288 1.8146 6.01183 1.66469 6.86391 1.63314ZM16.2331 7.83369C16.3212 7.89173 16.4122 7.94526 16.5056 7.9941C17.1136 8.30063 17.7075 8.39396 18 8.36187V10.7488C18 10.7488 17.1653 10.7138 16.5457 10.5475C15.6822 10.3139 15.1286 9.95517 15.1286 9.95517C15.1286 9.95517 14.7445 9.69822 14.7156 9.68073V14.6131C14.7156 14.8873 14.6438 15.5733 14.4286 16.1452C14.24 16.6343 13.9704 17.0873 13.6314 17.4848C13.6314 17.4848 13.1007 18.15 12.1685 18.5965C11.3914 18.9689 10.7002 18.9893 10.4257 18.9974C10.4032 18.998 10.3836 18.9986 10.3669 18.9993C10.3669 18.9993 9.09059 19.0512 7.93946 18.2603L7.93369 18.2544V18.2603C7.5445 17.9856 7.19744 17.6546 6.90369 17.2777C6.5394 16.8078 6.31587 16.2505 6.25818 16.0872V16.0813C6.16646 15.804 5.97407 15.1329 6.00292 14.4851C6.04878 13.3439 6.42749 12.6407 6.52786 12.4657C6.79163 11.9859 7.13619 11.5562 7.54603 11.1961C8.01377 10.7997 8.55769 10.5055 9.14348 10.3322C9.72928 10.1589 10.3442 10.1103 10.9495 10.1894L10.9467 12.6375C10.7473 12.5718 10.5388 12.5384 10.3291 12.5386C9.22125 12.5386 8.32336 13.4521 8.32336 14.5802C8.32336 15.7083 9.22125 16.6218 10.3291 16.6218C10.6741 16.6222 11.0132 16.5317 11.313 16.3593C11.6006 16.194 11.8437 15.9598 12.0209 15.6772C12.198 15.3947 12.3038 15.0724 12.3288 14.7388V14.7336C12.3303 14.7266 12.3303 14.7196 12.3303 14.7129V14.7129C12.3306 14.7076 12.3309 14.7025 12.3312 14.6976C12.3319 14.6873 12.3326 14.6776 12.3326 14.6674C12.3378 14.5455 12.3378 14.4221 12.3378 14.2973V5H14.7156C14.7119 5 14.6871 5.23041 14.7471 5.58651H14.7442C14.816 6.01553 15.011 6.62829 15.533 7.23231C15.7417 7.46042 15.9767 7.66233 16.2331 7.83369Z" fill="#473232"/>
<path fill-rule="evenodd" clip-rule="evenodd" d="M16.9467 0.0710059C15.6686 0.0236686 14.0197 0 12 0C9.98028 0 8.33136 0.0236686 7.05325 0.0710059C5.9645 0.118343 4.99408 0.307692 4.14201 0.639053C3.3215 0.954635 2.61144 1.41223 2.01183 2.01183C1.41223 2.61144 0.954635 3.3215 0.639053 4.14201C0.307692 4.99408 0.118343 5.9645 0.0710059 7.05325C0.0236686 8.33136 0 9.98028 0 12C0 14.0197 0.0236686 15.6686 0.0710059 16.9467C0.118343 18.0355 0.307692 19.0059 0.639053 19.858C0.954635 20.6785 1.41223 21.3886 2.01183 21.9882C2.61144 22.5878 3.3215 23.0454 4.14201 23.3609C4.99408 23.6923 5.9645 23.8817 7.05325 23.929C8.33136 23.9763 9.98028 24 12 24C14.0197 24 15.6686 23.9763 16.9467 23.929C18.0355 23.8817 19.0059 23.6923 19.858 23.3609C20.6785 23.0454 21.3886 22.5878 21.9882 21.9882C22.5878 21.3886 23.0454 20.6785 23.3609 19.858C23.6923 19.0059 23.8817 18.0355 23.929 16.9467C23.9763 15.6686 24 14.0197 24 12C24 9.98028 23.9763 8.33136 23.929 7.05325C23.8817 5.9645 23.6923 4.99408 23.3609 4.14201C23.0454 3.3215 22.5878 2.61144 21.9882 2.01183C21.3886 1.41223 20.6785 0.954635 19.858 0.639053C19.0059 0.307692 18.0355 0.118343 16.9467 0.0710059ZM6.86391 1.63314C8.18935 1.5858 9.90138 1.56213 12 1.56213C14.0986 1.56213 15.8107 1.5858 17.1361 1.63314C17.9882 1.66469 18.7771 1.8146 19.503 2.08284C20.6391 2.55621 21.4438 3.36095 21.9172 4.49704C22.1854 5.22288 22.3353 6.01183 22.3669 6.86391C22.4142 8.18935 22.4379 9.90138 22.4379 12C22.4379 14.0986 22.4142 15.8107 22.3669 17.1361C22.3353 17.9882 22.1854 18.7771 21.9172 19.503C21.4438 20.6391 20.6391 21.4438 19.503 21.9172C18.7771 22.1854 17.9882 22.3353 17.1361 22.3669C15.8107 22.4142 14.0986 22.4379 12 22.4379C9.90138 22.4379 8.18935 22.4142 6.86391 22.3669C6.01183 22.3353 5.22288 22.1854 4.49704 21.9172C3.36095 21.4438 2.55621 20.6391 2.08284 19.503C1.8146 18.7771 1.66469 17.9882 1.63314 17.1361C1.5858 15.8107 1.56213 14.0986 1.56213 12C1.56213 9.90138 1.5858 8.18935 1.63314 6.86391C1.66469 6.01183 1.8146 5.22288 2.08284 4.49704C2.55621 3.36095 3.36095 2.55621 4.49704 2.08284C5.22288 1.8146 6.01183 1.66469 6.86391 1.63314ZM16.2331 7.83369C16.3212 7.89173 16.4122 7.94526 16.5056 7.9941C17.1136 8.30063 17.7075 8.39396 18 8.36187V10.7488C18 10.7488 17.1653 10.7138 16.5457 10.5475C15.6822 10.3139 15.1286 9.95517 15.1286 9.95517C15.1286 9.95517 14.7445 9.69822 14.7156 9.68073V14.6131C14.7156 14.8873 14.6438 15.5733 14.4286 16.1452C14.24 16.6343 13.9704 17.0873 13.6314 17.4848C13.6314 17.4848 13.1007 18.15 12.1685 18.5965C11.3914 18.9689 10.7002 18.9893 10.4257 18.9974C10.4032 18.998 10.3836 18.9986 10.3669 18.9993C10.3669 18.9993 9.09059 19.0512 7.93946 18.2603L7.93369 18.2544V18.2603C7.5445 17.9856 7.19744 17.6546 6.90369 17.2777C6.5394 16.8078 6.31587 16.2505 6.25818 16.0872V16.0813C6.16646 15.804 5.97407 15.1329 6.00292 14.4851C6.04878 13.3439 6.42749 12.6407 6.52786 12.4657C6.79163 11.9859 7.13619 11.5562 7.54603 11.1961C8.01377 10.7997 8.55769 10.5055 9.14348 10.3322C9.72928 10.1589 10.3442 10.1103 10.9495 10.1894L10.9467 12.6375C10.7473 12.5718 10.5388 12.5384 10.3291 12.5386C9.22125 12.5386 8.32336 13.4521 8.32336 14.5802C8.32336 15.7083 9.22125 16.6218 10.3291 16.6218C10.6741 16.6222 11.0132 16.5317 11.313 16.3593C11.6006 16.194 11.8437 15.9598 12.0209 15.6772C12.198 15.3947 12.3038 15.0724 12.3288 14.7388V14.7336C12.3303 14.7266 12.3303 14.7196 12.3303 14.7129V14.7129C12.3306 14.7076 12.3309 14.7025 12.3312 14.6976C12.3319 14.6873 12.3326 14.6776 12.3326 14.6674C12.3378 14.5455 12.3378 14.4221 12.3378 14.2973V5H14.7156C14.7119 5 14.6871 5.23041 14.7471 5.58651H14.7442C14.816 6.01553 15.011 6.62829 15.533 7.23231C15.7417 7.46042 15.9767 7.66233 16.2331 7.83369Z" fill="#473232"/>
</svg>
