<svg width="327" height="56" viewBox="0 0 327 56" fill="none" xmlns="http://www.w3.org/2000/svg">
<rect width="327" height="56" rx="8" fill="#449CDA"/>
<g clip-path="url(#clip0)">
<path d="M186.821 26.6528C187.622 26.64 188.182 26.3856 188.322 25.6351C188.398 25.1898 188.144 24.8972 187.622 24.8718C187.622 24.8718 186.134 24.7955 184.429 24.7192C184.429 24.7192 181.885 24.6174 181.172 24.6047C180.536 24.5919 179.926 24.5792 179.493 24.5919C179.099 24.6047 178.908 24.8082 178.819 25.1262C178.743 25.457 178.666 25.9277 178.641 26.4111C178.615 26.78 179.023 26.9581 179.43 26.9326C179.43 26.9326 179.938 26.9072 180.727 26.869C181.63 26.8309 184.073 26.7291 184.073 26.7291C184.951 26.7037 185.905 26.6782 186.821 26.6528Z" fill="white"/>
<path d="M184.429 24.7192C184.429 24.7192 184.772 22.8237 184.951 22.0477C185.04 21.6661 184.836 21.2972 184.353 21.17C183.882 21.0555 182.788 21.0427 182.419 21.0936C182.114 21.1318 181.821 21.3099 181.745 21.6279C181.567 22.4166 181.389 23.3707 181.172 24.6047C181.058 25.1644 180.842 26.1821 180.74 26.8818C180.587 27.5814 180.307 29.4387 180.193 30.5963C180.04 31.9829 179.964 32.7971 180.053 33.9929C180.333 36.1428 181.452 36.9824 183.271 36.9824C184.951 36.9824 186.553 35.9265 187.698 34.0056C187.927 33.624 188.093 33.2932 187.953 33.1278C187.622 32.7462 186.986 32.5554 186.821 32.8607C186.07 34.2346 185.256 34.7943 184.378 34.7943C183.678 34.7943 183.119 34.3745 183.119 33.1787C183.119 31.4359 184.098 26.7418 184.098 26.7418C184.213 26.2075 184.353 25.4697 184.429 24.7192Z" fill="white"/>
<path d="M180.74 26.869C180.587 27.5687 180.295 29.426 180.193 30.5836C179.48 33.0006 177.992 34.7688 176.707 34.7688C175.919 34.7688 175.448 34.2982 175.448 32.8861C175.448 30.9271 175.893 28.4464 176.555 25.9658C177 23.6887 177.47 21.4625 177.585 20.254C177.623 19.8342 177.89 19.249 177.381 19.1473C176.466 18.9692 175.6 18.9946 174.99 19.1854C174.443 19.3508 174.341 19.9233 174.265 20.2286C173.947 21.6915 173.438 24.2866 173.082 26.5637C172.967 27.3397 172.776 28.2938 172.611 29.2351C172.611 29.2351 172.102 31.8303 172.102 33.3568C172.102 35.672 173.094 36.9569 175.422 36.9569C177.343 36.9569 179.01 35.6084 180.053 33.9674C181.032 32.3264 182.534 26.8054 182.534 26.8054C183.399 26.7927 179.951 26.9072 180.74 26.869Z" fill="white"/>
<path d="M182.979 24.7064C182.979 24.7064 183.055 22.811 183.233 22.0477C183.322 21.6661 182.775 21.0555 182.406 21.0936C182.101 21.1318 181.808 21.3099 181.732 21.6279C181.554 22.4166 181.16 24.6047 181.16 24.6047L180.727 26.8818C180.727 26.8818 180.282 29.4387 180.18 30.5963C179.468 33.0133 177.979 34.7816 176.695 34.7816C175.906 34.7816 175.435 34.3109 175.435 32.8989C175.435 30.9398 172.089 31.8557 172.089 33.3695C172.089 35.6848 173.082 36.9696 175.41 36.9696C177.331 36.9696 178.997 35.6212 180.04 33.9802C181.643 30.9652 182.559 26.9835 182.559 26.9835L182.979 24.7064Z" fill="white"/>
<path d="M175.511 25.1262C176.44 22.9 175.588 19.0201 174.99 19.2109C174.443 19.3763 174.875 23.0272 174.812 23.3325C174.494 24.7955 174.29 24.91 173.082 26.5892C172.28 27.556 171.364 28.2302 170.372 28.4083C167.586 28.7009 167.166 27.416 168.209 25.6223C169.838 22.811 167.688 23.7905 166.619 25.6351C166.301 26.1948 166.212 26.8436 166.187 27.4796C166.161 28.2811 166.289 29.286 167.332 30.0366C168.464 30.838 169.367 30.6854 170.207 30.52C171.123 30.3292 171.911 29.8967 172.598 29.2733C172.611 29.2606 174.863 27.6068 175.511 25.1262Z" fill="white"/>
<path d="M176.555 25.9913C177.483 23.7651 178.018 21.2845 178.018 20.165C178.018 19.7452 177.89 19.2745 177.381 19.1728C176.466 18.9947 175.6 19.0201 174.99 19.2109C174.443 19.3763 175.117 20.3177 175.053 20.623C174.735 22.0859 175.893 28.4719 176.555 25.9913Z" fill="white"/>
<path d="M164.19 35.1123C163.21 35.1123 162.561 34.2727 162.561 32.6063C162.561 29.4005 163.706 25.9658 165.742 25.9658C165.971 25.9658 166.174 25.9913 166.352 26.0676C167.001 26.2966 167.434 28.5228 167.217 29.9603C166.785 32.7717 165.538 35.1123 164.19 35.1123ZM170.372 28.4083C170.219 25.3934 168.464 24.0958 166.047 24.0958C161.811 24.0958 159.101 27.874 159.101 32.1102C159.101 35.5449 160.971 36.9824 163.706 36.9824C166.925 36.9824 169.329 34.6925 170.219 30.5073C170.347 29.7567 170.372 29.2352 170.372 28.4083Z" fill="white"/>
<path d="M157.533 19.0509C156.974 19.0509 156.465 19.0763 156.223 19.1018C155.727 19.1527 155.562 19.6234 155.6 20.0813C156.121 26.7599 154.646 34.5325 152.979 34.5325C151.732 34.5325 151.389 30.907 151.389 27.6758C151.389 25.7677 151.503 23.9231 151.542 22.3075C151.554 21.7096 151.338 21.5951 150.906 21.5443C150.244 21.4679 149.773 21.4679 149.112 21.6079C148.616 21.7223 148.489 22.1294 147.967 23.3761C145.346 29.6095 142.815 34.6216 142.815 34.6216C142.141 29.5967 143.006 24.7245 143.731 21.1753C143.833 20.6919 143.604 20.3993 143.197 20.3993C142.433 20.4121 141.276 20.4375 140.754 20.781C140.258 21.099 140.08 21.4425 139.94 22.1549C139.126 26.2256 138.604 31.3268 139.418 35.2831C139.596 36.1354 139.787 36.339 140.156 36.5552C140.512 36.7842 142.064 36.975 142.662 36.975C143.349 36.975 143.973 36.7969 144.481 35.9064C145.575 34.0237 146.466 32.141 148.12 28.5154C148.285 33.235 148.959 36.9368 152.279 36.9368C156.681 36.9368 159.518 25.9585 159.518 20.6665C159.518 19.2799 158.818 19.0509 157.533 19.0509Z" fill="white"/>
</g>
<defs>
<clipPath id="clip0">
<rect width="49.3702" height="18" fill="white" transform="translate(139 19)"/>
</clipPath>
</defs>
</svg>
